<?xml version="1.0" encoding="utf-8"?>
<!-- Generator: Adobe Illustrator 23.0.3, SVG Export Plug-In . SVG Version: 6.00 Build 0)  -->
<svg version="1.1" id="Layer_1" xmlns="http://www.w3.org/2000/svg" xmlns:xlink="http://www.w3.org/1999/xlink" x="0px" y="0px"
	 viewBox="0 0 198.43 181.42" style="enable-background:new 0 0 198.43 181.42;" xml:space="preserve">
<style type="text/css">
	.st0{display:none;}
	.st1{display:inline;}
	.st2{display:inline;fill:none;stroke:#000000;stroke-width:4.8756;stroke-miterlimit:10;}
	.st3{display:inline;fill:none;stroke:#000000;stroke-width:4;stroke-linecap:round;stroke-miterlimit:10;}
</style>
<path d="M100.3,109.41c-5.12,5.87-10.23,12.32-15.35,18.95c0.19,0.19,0.38,0.19,0.38,0.38c6.63,5.5,13.64,8.34,20.65,8.91
	c1.14,0,1.89,0.95,1.71,2.08c0,0.95-0.95,1.71-1.89,1.71c0,0,0,0-0.19,0c-7.77-0.57-15.35-3.79-22.74-9.66l-0.19-0.19
	c-8.15,10.8-15.92,22.36-22.36,33.54c-0.38,0.57-0.95,0.95-1.71,0.95c-0.38,0-0.57,0-0.95-0.19c-0.95-0.57-1.33-1.71-0.76-2.65
	c6.44-11.56,14.59-23.31,22.93-34.49c-6.63-7.58-21.03-28.42-3.79-53.63c8.91-13.07,25.39-23.5,48.89-31.46
	c17.43-5.87,32.4-7.96,32.59-7.96c0.57,0,0.95,0,1.33,0.38c0.38,0.38,0.57,0.76,0.76,1.33c0.19,1.33,3.98,33.73-7.58,63.67
	c-0.38,0.95-1.52,1.52-2.46,1.14c-0.95-0.38-1.52-1.52-1.14-2.46c9.66-25.01,8.15-52.49,7.58-59.88
	c-10.23,1.71-58.74,10.99-76.74,37.33c-15.73,22.93-3.41,41.5,2.84,48.51c5.12-6.44,10.23-12.7,15.16-18.57
	c-0.76,0-1.52-0.57-1.71-1.52c-0.19-0.76-3.41-16.68,0-25.96c0.38-0.95,1.52-1.52,2.46-1.14c0.95,0.38,1.52,1.52,1.14,2.46
	c-3.03,8.34,0,23.69,0,23.88c4.74-5.5,9.29-10.61,13.45-15.16c-0.38-2.08-2.27-12.89,0.19-19.33c0.38-0.95,1.52-1.52,2.46-1.14
	c0.95,0.38,1.52,1.52,1.14,2.46c-1.52,4.17-0.95,10.8-0.38,14.59c10.04-10.8,17.24-17.62,17.43-17.81c0.76-0.76,1.89-0.76,2.65,0
	s0.76,1.89,0,2.65c-0.19,0.19-7.39,7.2-17.62,18.19c2.84,0.57,11.56,1.71,16.68-0.19c0.95-0.38,2.08,0.19,2.46,1.14
	c0.38,0.95-0.19,2.08-1.14,2.46c-2.46,0.95-5.5,1.14-8.53,1.14c-5.68,0-10.8-1.14-11.18-1.14s-0.76-0.38-0.95-0.57
	c-3.98,4.36-8.34,9.1-12.7,14.4c3.6,0.57,15.73,2.46,22.93-0.19c0.95-0.38,2.08,0.19,2.46,1.14c0.38,0.95-0.19,2.08-1.14,2.46
	c-3.22,1.14-7.2,1.52-11.18,1.52c-7.39,0-14.4-1.33-14.78-1.52C100.87,109.79,100.49,109.6,100.3,109.41z M59.18,111.82
	c0.95,0,1.71-0.57,1.89-1.52c0.19-0.95-0.38-2.08-1.52-2.27c-2.65-0.57-5.31-1.52-7.96-2.84c-0.95-0.57-24.25-13.07-14.21-39.22
	c9.29-23.88,44.72-40.17,53.25-43.58c1.14,3.41,3.6,11.56,4.93,21.79c0.19,0.95,1.14,1.71,2.08,1.71c0.95-0.19,1.71-1.14,1.71-2.08
	c-1.89-14.02-5.68-24.07-5.68-24.44c-0.19-0.38-0.57-0.95-0.95-1.14c-0.38-0.19-0.95-0.19-1.52,0c-1.89,0.76-46.24,18-57.23,46.61
	c-9.66,25.01,8.53,39.22,14.4,43.01c-2.46,4.55-9.47,18.38-13.07,30.32c-0.38,0.95,0.19,2.08,1.33,2.27c0.19,0,0.38,0,0.57,0
	c0.76,0,1.52-0.57,1.89-1.33c3.41-11.56,10.42-25.2,12.89-29.56c2.46,1.14,4.93,1.89,7.2,2.46
	C58.8,111.82,58.99,111.82,59.18,111.82z M173.07,139.12c0,14.78-11.94,26.72-26.72,26.72c-14.78,0-26.72-11.94-26.72-26.72
	c0-14.78,12.13-26.72,26.72-26.72C160.94,112.4,173.07,124.33,173.07,139.12z M169.28,139.12c0-12.7-10.23-22.93-22.93-22.93
	c-12.7,0-22.93,10.23-22.93,22.93c0,12.7,10.42,22.93,22.93,22.93S169.28,151.81,169.28,139.12z M131.24,126.65
	c-0.28-0.6,0.09-1.21,0.79-1.21h2.11c0.41,0,0.68,0.27,0.77,0.5l11.34,25.5h0.18l11.34-25.5c0.09-0.23,0.41-0.5,0.77-0.5h2.11
	c0.7,0,1.07,0.6,0.79,1.21l-14.13,31.28c-0.14,0.28-0.42,0.51-0.79,0.51h-0.46c-0.33,0-0.65-0.23-0.79-0.51L131.24,126.65z"/>
<g class="st0">
	<g class="st1">
		<path d="M99.22,117.99l-2.11-3.13C87.21,100.17,81.97,83,81.97,65.21c0-17.79,5.24-34.96,15.14-49.66l2.11-3.13l2.11,3.12
			c9.9,14.69,15.14,31.87,15.14,49.66c0,17.79-5.24,34.97-15.14,49.66L99.22,117.99z M99.22,21.67
			c-7.97,13.1-12.17,28.07-12.17,43.54c0,15.46,4.2,30.44,12.17,43.53c7.97-13.1,12.17-28.07,12.17-43.53S107.19,34.77,99.22,21.67z
			"/>
		<path d="M60.14,145.72c-11.13,0-21.88-3.28-31.08-9.48l-3.12-2.11l3.12-2.11c9.2-6.2,19.94-9.47,31.08-9.47
			c11.14,0,21.88,3.28,31.08,9.47l3.12,2.11l-3.12,2.11C82.02,142.45,71.27,145.72,60.14,145.72z M35.3,134.14
			c7.55,4.27,16.06,6.5,24.83,6.5s17.28-2.24,24.83-6.5c-7.55-4.26-16.06-6.5-24.83-6.5C51.36,127.64,42.86,129.88,35.3,134.14z"/>
		<path d="M93.18,126.05l-3.7-0.72c-12.22-2.38-23.34-8.31-32.18-17.14c-8.83-8.83-14.76-19.96-17.14-32.18l-0.72-3.7l3.7,0.72
			c12.22,2.38,23.34,8.3,32.18,17.14c8.83,8.83,14.76,19.96,17.14,32.18L93.18,126.05z M46.05,78.91
			c2.59,9.7,7.68,18.51,14.85,25.68c7.17,7.17,15.99,12.26,25.68,14.85c-2.59-9.7-7.68-18.51-14.85-25.68
			C64.56,86.59,55.74,81.5,46.05,78.91z"/>
		<path d="M105.26,126.04l0.72-3.7c2.38-12.22,8.31-23.34,17.14-32.17c8.83-8.83,19.96-14.76,32.18-17.14l3.7-0.72l-0.72,3.7
			c-2.38,12.21-8.3,23.34-17.14,32.18c-8.83,8.83-19.96,14.76-32.17,17.14L105.26,126.04z M152.39,78.91
			c-9.7,2.59-18.51,7.68-25.68,14.85c-7.17,7.17-12.25,15.99-14.85,25.68c9.7-2.59,18.51-7.68,25.68-14.85
			C144.71,97.42,149.8,88.6,152.39,78.91z"/>
		<path d="M138.29,145.72c-11.13,0-21.87-3.28-31.06-9.48l-3.12-2.11l3.12-2.11c9.2-6.2,19.94-9.47,31.06-9.47
			c11.14,0,21.89,3.28,31.09,9.47l3.13,2.11l-3.13,2.11C160.18,142.45,149.43,145.72,138.29,145.72z M113.47,134.14
			c7.55,4.27,16.05,6.5,24.82,6.5c8.78,0,17.29-2.24,24.84-6.5c-7.55-4.26-16.07-6.5-24.84-6.5
			C129.52,127.64,121.02,129.88,113.47,134.14z"/>
		<rect x="96.68" y="140.14" width="5.41" height="29.2"/>
	</g>
</g>
<g class="st0">
	<path class="st2" d="M140.61,133.78c0,0-1-22.12-1.3-25.4c2.9-2.63,7.05-5.14,7.38-12.19c0.43-9.3-5.54-15.96-10.85-17.11
		c-0.03-4.99-0.03-4.99-0.03-4.99c1.13-3.87,4.44-6.52,4.24-18.6c-0.11-6.42-1.13-11.92-3.07-16.63c4.63-2.78,7.74-7.75,7.74-13.47
		c0-8.75-7.21-15.83-16.1-15.83c-6.7,0-10.49,4.03-11.95,9.75c-1.36-0.54-2.74-1.03-4.15-1.43c0,0-2.6-1.28-14.29-1.22
		c-10.79,0.06-16.98,2.26-16.98,2.26c-1.7,0.62-3.29,1.29-4.82,1.98c-1.17-6.2-4.24-11.35-10.77-11.35c-8.89,0-16.1,7.09-16.1,15.83
		c0,6.23,3.7,11.57,9.02,14.15c-1.42,4.38-2.17,9.6-2.17,15.95c0,7.52,1.91,14.52,5.17,20.51l-0.7,5.7
		c-5.05,1.43-8.84,7.24-8.84,14.2c0,5.34,2.25,9.96,5.56,12.49l2.77,1.93c-0.48,5.19-1.38,24.96-1.38,24.96
		c0,0.63-9.57,9.57-7.14,19.47c2.94,11.93,12.39,18.07,21.46,17.65c3.72-0.17,8.48-1.47,10.99-3.91c7.39,2.05,10.86,2.39,17.66,2.39
		c7.15,0,8.21-0.18,16.5-2.61c2.13,1.75,2.98,2.54,5.82,3.26c11.1,2.79,20.84-6.02,24.13-17.87
		C151.19,143.72,140.61,133.78,140.61,133.78z"/>
	<path class="st1" d="M82.26,49.57c-2.75,1.29-4.8,3.65-5.83,1.45c-1.02-2.2,0.37-5.02,3.12-6.3c2.75-1.28,5.81-0.54,6.83,1.66
		C87.41,48.59,85.01,48.29,82.26,49.57z"/>
	<path class="st1" d="M114.13,49.57c2.75,1.29,4.8,3.65,5.83,1.45c1.03-2.2-0.37-5.02-3.12-6.3c-2.75-1.28-5.81-0.54-6.83,1.66
		C108.98,48.59,111.38,48.29,114.13,49.57z"/>
	<path class="st1" d="M106.39,57.75c0,2-3.42,3.61-7.65,3.61c-4.22,0-7.64-1.61-7.64-3.61c0-1.99,3.42-3.61,7.64-3.61
		C102.96,54.15,106.39,55.76,106.39,57.75z"/>
	<path class="st3" d="M70.9,25.45c0,0-1.84-8.35-8.83-8.2"/>
	<path class="st3" d="M122.82,23.24c0,0,3.26-7.91,10.12-6.55"/>
</g>
<g class="st0">
	<path class="st1" d="M151.61,53.32L151.61,53.32c-7.15-7.15-16.6-11.07-26.6-11.07l0,0c-8.49,0-16.6,2.85-23.21,8.11
		c0.81-10.26,6.61-13.65,7.04-13.92c1.34-0.7,1.77-2.31,1.07-3.49c-0.7-1.34-2.31-1.77-3.65-1.07c-0.16,0.16-2.15,1.24-4.3,3.76
		c-0.54-1.88-1.5-3.92-2.96-5.8c-3.65-4.84-9.56-7.41-17.68-7.95c-0.81,0-1.5,0.27-2.04,0.81c-0.54,0.54-0.81,1.34-0.81,2.04
		c0.54,7.95,3.22,13.92,7.84,17.68c3.65,2.96,7.84,3.76,10.69,3.92c-0.27,1.24-0.43,2.58-0.54,4.03
		c-6.61-5.27-14.72-8.11-23.21-8.11c-9.99,0-19.45,3.92-26.6,11.07c-6.88,7.04-10.8,16.5-10.8,26.49c0,13.49,5.8,26.49,15.8,35.52
		l45.78,41.05c0.54,0.43,1.07,0.7,1.77,0.7s1.24-0.27,1.77-0.7l45.78-40.94c10.16-9.03,15.8-22.03,15.8-35.52
		C162.57,69.81,158.64,60.36,151.61,53.32z M84.07,27.53c4.73,0.81,8.38,2.58,10.69,5.43c2.15,2.69,2.69,5.96,2.85,7.95
		c-2.04-0.16-5.27-0.7-7.95-2.85C86.75,35.91,84.87,32.25,84.07,27.53z M143.12,111.29l-44.01,39.44l-43.9-39.44
		c-9.03-7.95-14.18-19.45-14.18-31.49c0-8.65,3.39-16.6,9.46-22.84c6.07-6.07,14.18-9.46,22.67-9.46c8.65,0,16.6,3.39,22.67,9.46
		l1.34,1.34c1.07,1.07,2.69,1.07,3.76,0l1.34-1.34c6.07-6.07,14.18-9.46,22.67-9.46l0,0c8.65,0,16.6,3.39,22.67,9.46l0.16,0.16
		c6.07,6.07,9.46,14.18,9.46,22.67C157.25,91.84,152.14,103.29,143.12,111.29z"/>
	<path class="st1" d="M142.15,62.67c-4.57-4.57-10.69-7.04-17.03-7.04c-1.5,0-2.69,1.24-2.69,2.69c0,1.45,1.24,2.69,2.69,2.69
		c5,0,9.73,2.04,13.38,5.53c3.65,3.65,5.53,8.38,5.53,13.38c0,1.5,1.24,2.69,2.69,2.69c1.45,0,2.69-1.24,2.69-2.69
		C149.3,73.3,146.72,67.23,142.15,62.67z"/>
</g>
<g class="st0">
	<path class="st1" d="M121.59,72.22c6.3,0,6.3-9.77,0-9.77C115.29,62.45,115.29,72.22,121.59,72.22z"/>
	<path class="st1" d="M144.77,86.36c3.53,0,3.53-5.48,0-5.48C141.23,80.88,141.23,86.36,144.77,86.36z"/>
	<path class="st1" d="M149.64,98.35c-1,0.72-2.13,1.31-3.35,1.75c-4.39,1.55-9.43,0.69-13.03-2.22c-1.45-1.17-2.67-2.66-3.54-4.38
		c-0.23-0.42-0.42-0.83-0.58-1.26l-0.88-2.32l-2.31,0.92c-2,0.79-4.16,1.27-6.26,1.39l-2.44,0c-6.18-0.32-11.84-3.36-15.58-8.25
		v-0.39h-0.28c-0.31-0.42-0.63-0.83-0.91-1.28c-2.03-3.3-3.11-7.11-3.11-11.01c0-0.56,0.01-1.1,0.06-1.67
		c0.25-3.29,1.32-6.54,3.09-9.4l1.41-2.29l-2.42-1.19c-2.73-1.34-4.73-3.91-5.33-6.87l-0.4-1.95h-47.9v107.62h107.65v-60
		L149.64,98.35z M117.5,97.14l2.53,0.06v-0.1c1.91-0.13,3.76-0.45,5.54-0.97c0.61,1.12,1.35,2.18,2.18,3.16h-26.08v-8.28
		C106.06,94.72,111.59,96.95,117.5,97.14z M89.93,52.82c1,2.8,2.83,5.25,5.23,7c-1.46,2.96-2.36,6.18-2.6,9.42
		c-0.06,0.68-0.08,1.36-0.08,2.06c0,4.81,1.33,9.51,3.84,13.58c0.14,0.23,0.31,0.42,0.45,0.64v13.77h-46V52.82H89.93z M50.76,104.18
		h46v46.48h-46V104.18z M148.62,150.66h-46.97v-46.48h31.9v-0.38c4.41,2.17,9.64,2.57,14.36,0.91c0.23-0.09,0.47-0.17,0.7-0.27
		L148.62,150.66L148.62,150.66z"/>
	<path class="st1" d="M59.36,93.25c1.35,0,2.45-1.09,2.45-2.45V64.92h25.88c1.35,0,2.45-1.09,2.45-2.45c0-1.35-1.09-2.45-2.45-2.45
		H59.36c-1.35,0-2.45,1.09-2.45,2.45V90.8C56.91,92.15,58.01,93.25,59.36,93.25z"/>
	<path class="st1" d="M87.69,111.66H59.36c-1.35,0-2.45,1.09-2.45,2.45v28.33c0,1.35,1.09,2.45,2.45,2.45
		c1.35,0,2.45-1.09,2.45-2.45v-25.88h25.88c1.35,0,2.45-1.09,2.45-2.45S89.04,111.66,87.69,111.66z"/>
	<path class="st1" d="M138.81,111.66h-28.33c-1.35,0-2.45,1.09-2.45,2.45v28.33c0,1.35,1.09,2.45,2.45,2.45
		c1.35,0,2.45-1.09,2.45-2.45v-25.88h25.88c1.35,0,2.45-1.09,2.45-2.45C141.25,112.75,140.16,111.66,138.81,111.66z"/>
</g>
</svg>
