<?xml version="1.0" encoding="utf-8"?>
<!-- Generator: Adobe Illustrator 21.0.2, SVG Export Plug-In . SVG Version: 6.00 Build 0)  -->
<svg version="1.1" id="Layer_1" xmlns="http://www.w3.org/2000/svg" xmlns:xlink="http://www.w3.org/1999/xlink" x="0px" y="0px"
	 viewBox="0 0 681.5 681.5" style="enable-background:new 0 0 681.5 681.5;" xml:space="preserve">
<style type="text/css">
	.st0{fill:#80B966;}
</style>
<title>ico-vegan</title>
<path class="st0" d="M340.7,0C152.8,0,0,152.9,0,340.7s152.8,340.7,340.7,340.7s340.7-152.8,340.7-340.7S528.6,0,340.7,0z
	 M340.7,663.4c-177.9,0-322.6-144.7-322.6-322.6S162.8,18.1,340.7,18.1s322.6,144.7,322.6,322.6S518.6,663.4,340.7,663.4z"/>
<path class="st0" d="M575.5,309.2c-1.3-0.5-30.9-12.6-70.3-12.6c-33.6,0-63.8,8.7-89.8,25.8c-35.9,23.6-47.5,71-26.5,108.5
	c-8.7,9.9-16.1,20.9-22,32.7c-3.9-14.1-9.7-27.6-17.1-40.2C383,381,382.4,319.7,345.5,278c-62-70-154.3-77.5-191-77.5
	c-7.2-0.1-14.5,0.3-21.7,0.9c-3.7,0.4-6.8,3.1-7.7,6.8c-1.3,5.2-31.4,128.1,50.5,220.5c41.6,46.9,113.3,51.3,160.3,9.7c0,0,0,0,0,0
	c0.5-0.5,1-1,1.5-1.4c19.8,36.4,17.5,67.9,17.2,70.3l0,0c-0.5,5,3.2,9.4,8.1,9.8c0.3,0,0.6,0,0.9,0c4.7,0,8.6-3.5,9-8.2l0,0
	c2.3-25,13.5-45.8,27.2-62.4c19.5,23.3,41.2,28.6,56.8,28.6c22.9,0,42-10.9,49.2-15.6c71.8-47.2,75.2-137.8,75.3-141.6
	C581.1,314.1,578.9,310.6,575.5,309.2z M261.1,344.8c-4.5-2.2-9.9-0.3-12.1,4.2s-0.3,9.9,4.2,12.1l0,0c36,17.5,59.2,39,74.3,60.2
	c-1.2,1.2-2.4,2.4-3.6,3.6c-39.5,35-99.8,31.3-134.8-8.1c-65.4-73.8-52.6-172.1-47.8-197.7c3.3-0.2,7.8-0.3,13.2-0.3
	c34.3,0,120.3,7,177.5,71.4c29,32.8,31.9,81.1,7.2,117.2C322.6,385,297.9,362.7,261.1,344.8z M495.7,444.4
	c-5.8,3.8-21.2,12.6-39.2,12.6c-17,0-31.9-8.1-44.4-24c15.4-14.8,33-27,52.1-36.3c4.6-2,6.7-7.3,4.7-11.9c-2-4.6-7.3-6.7-11.9-4.7
	l0,0c-20,9.4-38.5,21.9-54.7,37c-12.9-28.6-3.1-62.4,23.1-79.6c23-15.1,49.9-22.8,79.9-22.8c19.4,0.1,38.7,3.1,57.2,9.1
	C560.2,344.4,549.1,409.2,495.7,444.4z"/>
</svg>
