<?xml version="1.0" encoding="utf-8"?>
<!-- Generator: Adobe Illustrator 23.0.1, SVG Export Plug-In . SVG Version: 6.00 Build 0)  -->
<svg version="1.1" xmlns="http://www.w3.org/2000/svg" xmlns:xlink="http://www.w3.org/1999/xlink" x="0px" y="0px"
	 viewBox="0 0 73.1 44" style="enable-background:new 0 0 73.1 44;" xml:space="preserve">
<style type="text/css">
	.st0{fill:#FDF3C2;}
	.st1{fill:#570100;}
	.st2{fill:#FED691;stroke:#570100;stroke-width:3;stroke-miterlimit:10;}
	.st3{fill:#FFFFFF;}
</style>
<g id="Layer_3">
	<g>
		<rect x="1.5" y="1.5" class="st0" width="70.1" height="41"/>
		<path class="st1" d="M70.1,3v38H3V3H70.1 M73.1,0H0v44h73.1V0L73.1,0z"/>
	</g>
	<polyline class="st2" points="1,3 36.5,24.2 72.1,3 	"/>
</g>
<g id="Layer_4">
	<g>
		<ellipse class="st1" cx="22.6" cy="16.8" rx="5.4" ry="8"/>
		<circle class="st3" cx="20.6" cy="12.7" r="1.8"/>
	</g>
	<g>
		<ellipse class="st1" cx="50.5" cy="16.8" rx="5.4" ry="8"/>
		<circle class="st3" cx="48.7" cy="12.7" r="1.8"/>
	</g>
	<path class="st1" d="M44.3,30.3H28.8c-0.5,0-0.9,0.2-1.2,0.6c-0.3,0.4-0.4,0.9-0.2,1.3c0.1,0.2,1.6,5.8,9.2,5.8
		c7.5,0,9.2-5.5,9.2-5.8c0.2-0.5,0-1-0.2-1.3C45.3,30.6,44.8,30.3,44.3,30.3z"/>
</g>
</svg>
