<?xml version="1.0" encoding="utf-8"?>
<!-- Generator: Adobe Illustrator 24.1.0, SVG Export Plug-In . SVG Version: 6.00 Build 0)  -->
<svg version="1.1" id="Layer_1" xmlns="http://www.w3.org/2000/svg" xmlns:xlink="http://www.w3.org/1999/xlink" x="0px" y="0px"
	 viewBox="0 0 36.3 71.8" style="enable-background:new 0 0 36.3 71.8;" xml:space="preserve">
<g>
	<g>
		<path d="M18.3,71.8h-0.2c-9.3,0-16.9-7.6-16.9-16.9v-4.1c0-0.5,0.4-0.9,0.9-0.9S3,50.4,3,50.8v4.1c0,8.4,6.8,15.1,15.1,15.1h0.2
			c8.4,0,15.1-6.8,15.1-15.1v-38c0-8.4-6.8-15.1-15.1-15.1h-0.2C9.8,1.8,3,8.5,3,16.9v25.2C3,42.6,2.6,43,2.1,43s-0.9-0.4-0.9-0.9
			V16.9C1.3,7.6,8.8,0,18.1,0h0.2c9.3,0,16.9,7.6,16.9,16.9v38C35.2,64.2,27.7,71.8,18.3,71.8z"/>
	</g>
	<g>
		<path d="M28.5,17.8c-0.5,0-0.9-0.4-0.9-0.9c0-5.1-4.2-9.3-9.3-9.3h-0.2c-0.5,0-0.9-0.4-0.9-0.9s0.4-0.9,0.9-0.9h0.2
			c6.1,0,11.1,5,11.1,11.1C29.4,17.4,29,17.8,28.5,17.8z"/>
	</g>
	<g>
		<path d="M34.4,36.8H2.1c-0.5,0-0.9-0.4-0.9-0.9S1.6,35,2.1,35h32.2c0.5,0,0.9,0.4,0.9,0.9S34.8,36.8,34.4,36.8z"/>
	</g>
	<g>
		<path d="M2.1,48.2c-0.2,0-0.5-0.1-0.6-0.3c-0.2-0.2-0.3-0.4-0.3-0.6c0-0.2,0.1-0.5,0.3-0.6c0.3-0.3,0.9-0.3,1.2,0
			C2.9,46.9,3,47.1,3,47.3c0,0.2-0.1,0.5-0.2,0.6C2.6,48.1,2.3,48.2,2.1,48.2z"/>
	</g>
</g>
</svg>
