<svg id="Layer_1" xmlns="http://www.w3.org/2000/svg" width="776.692" height="200" viewBox="0 0 776.692 200"><path d="M104.67 198.318H43.262C14.942 198.318 0 177.305 0 145.32V54.768C0 22.798 6.78 0 47.724 0h15.648c28.893 0 41.498 22.83 41.498 55.082V72.9H57.76V44.064c0-2.524-2.128-4.808-4.653-4.808h-.578c-2.53 0-4.86 2.283-4.86 4.808V152.63c0 3.088 2.624 5.028 5.15 5.028h51.23l.616 40.66zM371.764 2.035V198.32h-47.11v-88.73l-10.794 88.73h-31.608l-11.592-88.73v88.73h-46.95l-.158-196.285h62.404l11.7 88.783L309.23 2.035h62.535zm118.824 0h47.67V157.66h32.806v40.658H490.59V2.035zm285.54 0L750.9 96.81l25.793 101.51h-49.348l-8.973-50.474-10.38 50.473h-42.9l25.8-94.78L665.654 2.03h49.352l8.13 49.63L733.23 2.03h42.9zM157.38 44.982v110.052c0 2.972 2.41 5.38 5.645 5.38a5.378 5.378 0 0 0 5.38-5.38V44.982c0-2.973-2.41-5.385-5.642-5.385a5.39 5.39 0 0 0-5.383 5.385zm58.854 112.957c0 28.314-13.744 42.06-42.064 42.06h-22.434c-28.318 0-42.06-13.74-42.06-42.06V42.41c0-28.32 13.74-42.06 42.058-42.06h22.434c28.322 0 42.066 13.738 42.066 42.06v115.53zM427.248 39.87v46.49l4.945.025c2.732 0 4.943-2.405 4.943-5.38V45.253c0-2.97-2.21-5.38-4.943-5.38h-4.945zm.162 81.94v76.505h-47.668V2.035h62.25c28.318 0 42.06 13.738 42.06 42.058v35.66c0 28.322-13.74 42.06-42.06 42.06H427.41zM576.417 1.495h84.223v40.708h-36.496v35.932h35.096v40.708h-35.096v38.46h37.06v40.708h-84.786V1.5z"/></svg>