<svg height="50" width="164" viewBox="0 0 82 25" xmlns="http://www.w3.org/2000/svg"><g stroke="#000" stroke-linecap="square" stroke-width=".25"><path d="M76.077 17.305c-.412-3.167-1.167-4.727-3.412-5.018h-1.598v10.741h2.693c3.118-.196 6.785-2.595 7.518-7.676v7.928H65.255v-.262h2.378v-21h-1.691v16.377c-.127 1.742-.852 2.765-1.6 3.71a4.935 4.935 0 0 1-2.709 1.577c-3.358.748-7.166.04-8.86-2.469-.443-.793-.716-1.223-.756-3.895V2.04h-1.984v-.252h7.425v.25h-2.01v18.187c-.051.958.619 2.167 2.334 3.153.958.422 2.508.317 3.438.145.708-.086 1.152-.29 1.763-.588 1.219-.598 2.744-2.895 2.712-4.5V2.038h-2.553v-.251h17.226v7.166c-.198-.876-.345-2.24-1.088-3.583-1.26-2.455-2.823-3.412-5.577-3.333H71.07v10h1.612c2.295-.217 3.031-1.432 3.396-4.334z"/><path d="M51.505 14.66h-1.283v8.477c-.512-.89-1.104-1.385-2.395-1.012-1.817.868-4 1.763-5.225 1.733-1.315.034-2.637-.431-3.845-1.018-4.275-2.88-5.834-8.253-4.732-13.443.802-3.305 3.167-6.984 6.647-8.092 3.481-1.27 5.833 2.38 8.2-.19v8c-.794-2.887-2.12-6.62-5.389-7.733-1.986-.429-3.761.465-4.598 1.983-1.785 3.928-1.897 14.19.333 18.433.282.642 1.51 1.882 3.387 1.792s4.193-1.27 4.193-2.97v-5.962H45.51v-.255h6zM28.503 22.403c-1.86 1.27-4.151 1.937-6.56 1.402-3.01-.633-5.755-3.465-6.756-6.333-1.314-4.24-.814-9.557 2.1-12.909 2.29-2.275 5.075-3.725 8.366-3.013 2.982.648 6.094 3.692 6.902 6.632 1.688 5.121.333 10.918-4.052 14.221zm-1.52-19.646c-1.018-1.105-3.183-1.475-4.896-.809-3.075 1.602-3.305 5.725-3.575 9.167-.195 2.348-.26 8.465 2.255 11.632 1.025 1.02 3.021 1.178 4.301.798 3.81-1.407 3.96-5.733 4.229-9.313v-.077c.205-3.982-.23-8.865-2.314-11.398z"/><path d="M18.508 2.033c-.058.017-1.856 0-2.1 0-2.216 7.022-4.566 14.434-6.776 21.404a89.773 89.773 0 0 1-1.32-3.384L1.59 2.035H.027v-.248h6.895v.248H5.277l5.745 15.53.1.298L16.185 2.03h-2.292v-.243h4.612z"/></g></svg>
