<?xml version="1.0" encoding="utf-8"?>
<!-- Generator: Adobe Illustrator 21.0.2, SVG Export Plug-In . SVG Version: 6.00 Build 0)  -->
<svg version="1.1" id="Layer_3" xmlns="http://www.w3.org/2000/svg" xmlns:xlink="http://www.w3.org/1999/xlink" x="0px" y="0px"
	 viewBox="0 0 525.5 611.8" style="enable-background:new 0 0 525.5 611.8;" xml:space="preserve">
<style type="text/css">
	.st0{fill:none;stroke:#80B966;stroke-width:17;stroke-linecap:round;stroke-linejoin:round;}
	.st1{fill:none;stroke:#80B966;stroke-width:17;stroke-miterlimit:10;}
</style>
<title>ico-scale</title>
<line class="st0" x1="263.4" y1="272.2" x2="263.4" y2="308.6"/>
<line class="st0" x1="399.1" y1="407.9" x2="357.3" y2="407.9"/>
<line class="st0" x1="309.4" y1="326.2" x2="334.4" y2="292.2"/>
<line class="st0" x1="341.2" y1="359.3" x2="380.4" y2="341.9"/>
<path class="st1" d="M517,32.6c0,13.3-10.8,24.1-24.1,24.1c0,0,0,0,0,0H32.6c-13.3,0-24.1-10.8-24.1-24.1c0,0,0,0,0,0l0,0
	c0-13.3,10.8-24.1,24.1-24.1c0,0,0,0,0,0h460.3C506.2,8.5,517,19.3,517,32.6C517,32.6,517,32.6,517,32.6L517,32.6z"/>
<path class="st1" d="M480,56.7H45.5c0,0-2.7,112.4,95,112.4H385C482.6,169.1,480,56.7,480,56.7z"/>
<rect x="247.4" y="169.1" class="st1" width="30.8" height="40.1"/>
<path class="st1" d="M460.1,459.4v90.3c0,29.6-24,53.5-53.5,53.5H118.9c-29.6,0-53.5-24-53.5-53.5V405.9
	c0-109,88.4-197.4,197.4-197.4s197.4,88.4,197.4,197.4L460.1,459.4z"/>
<circle class="st1" cx="262.7" cy="405.9" r="136.5"/>
<line class="st0" x1="258.6" y1="409.4" x2="297.6" y2="346.5"/>
</svg>
