<?xml version="1.0" encoding="utf-8"?>
<!-- Generator: Adobe Illustrator 23.0.1, SVG Export Plug-In . SVG Version: 6.00 Build 0)  -->
<svg version="1.1" id="Layer_1" xmlns="http://www.w3.org/2000/svg" xmlns:xlink="http://www.w3.org/1999/xlink" x="0px" y="0px"
	 viewBox="0 0 16.2 14.1" style="enable-background:new 0 0 16.2 14.1;" xml:space="preserve">
<path d="M13.1,4.8l2.5-1.6L10.2,0L10,0.2L8.1,2L6,0L5.8,0.1L0.6,3.2l2.5,1.6L0,6.3l3.3,1.8v3.4l4.8,2.6l4.8-2.6V8.1l3.3-1.8
	L13.1,4.8z M10.3,0.8l4.1,2.4l-1.9,1.2L8.8,2.3L10.3,0.8z M1.9,3.2L6,0.8l1.6,1.5L3.8,4.5L1.9,3.2z M1.5,6.4l2.3-1.2l0,0l0,0
	l3.6,1.7L4.8,8.2L1.5,6.4z M7.8,13.3L4,11.2V8.6L4.8,9L5,8.9l2.9-1.4L7.8,13.3z M4.5,4.8l3.6-2l3.6,2L8.1,6.6L4.5,4.8z M12.2,11.2
	l-3.8,2.1V7.5l3,1.5l0.1-0.1l0.6-0.3L12.2,11.2z M11.5,8.2L8.9,7l3.5-1.7l0,0l0,0l2.3,1.2L11.5,8.2z"/>
</svg>
