<?xml version="1.0" encoding="utf-8"?>
<!-- Generator: Adobe Illustrator 23.0.2, SVG Export Plug-In . SVG Version: 6.00 Build 0)  -->
<svg version="1.1" id="Layer_1" xmlns="http://www.w3.org/2000/svg" xmlns:xlink="http://www.w3.org/1999/xlink" x="0px" y="0px"
	 viewBox="0 0 28.34 28.34" style="enable-background:new 0 0 28.34 28.34;" xml:space="preserve">
<style type="text/css">
	.st0{display:none;}
	.st1{display:inline;}
</style>
<g class="st0">
	<g class="st1">
		<path d="M25.85,17.82c-1.26-0.48-2.58-0.8-3.93-0.98c-0.72-0.1-1.46-0.14-2.2-0.14c0.56-0.46,1.08-0.98,1.52-1.54
			c1.5-1.88,1.98-3.91,2.12-5.27l0.08-0.56l-0.56,0.14c-1.58,0.38-3.06,1.04-4.41,1.96c-0.92,0.62-1.74,1.36-2.46,2.18
			c0.06-0.6,0.1-1.22,0.1-1.82c-0.02-2.8-0.8-5.65-2.26-8.23l-0.34-0.64l-0.34,0.64c-1.36,2.6-2.12,5.35-2.26,8.19
			c-0.04,0.86-0.02,1.74,0.04,2.6c-0.8-0.92-1.72-1.72-2.74-2.4c-1.56-1.04-3.29-1.78-5.15-2.16L2.43,9.67l0.16,0.62
			c0.5,2.02,1.5,3.87,2.88,5.35c0.54,0.58,1.12,1.1,1.76,1.56c-0.66,0.04-1.34,0.16-1.98,0.32c-1.1,0.32-2.16,0.78-3.13,1.42
			l-0.58,0.38l0.64,0.3c1.28,0.62,2.64,1.1,4.05,1.42c0.66,0.16,1.32,0.28,1.98,0.36c-0.18,0.14-0.36,0.28-0.52,0.42
			c-1.44,1.26-2.12,2.82-2.44,3.91L5.1,26.26h0.54c1.44,0,2.82-0.3,4.13-0.88c1.7-0.76,2.86-1.86,3.65-2.78
			c0.52,0.94,1.48,2.22,3.15,3.08c1.28,0.66,2.52,0.84,3.49,0.84c0.22,0,0.42,0,0.62-0.02L21,26.48l0.02-0.34
			c0.06-0.88-0.06-2.22-0.82-3.57c-0.2-0.36-0.46-0.7-0.72-1c0.96-0.02,1.9-0.2,2.8-0.52c1.82-0.66,3.06-1.76,3.77-2.58l0.38-0.44
			L25.85,17.82z M21.96,20.29c-1.12,0.4-2.34,0.56-3.55,0.44l-1.34-0.14l1.06,0.84c0.54,0.44,0.98,0.94,1.32,1.54
			c0.58,1,0.72,2,0.74,2.74c-0.88,0.02-2.06-0.1-3.31-0.74c-1.82-0.94-2.7-2.46-3.08-3.31l-0.28-0.64l-0.4,0.56
			c-0.66,0.92-1.86,2.2-3.73,3.04c-1.02,0.46-2.1,0.72-3.23,0.8c0.34-0.92,0.94-2.04,2.02-3c0.42-0.36,0.88-0.7,1.4-0.96l1.26-0.66
			l-1.42-0.1c-1.02-0.06-2.04-0.22-3.04-0.46c-1.08-0.26-2.16-0.6-3.19-1.06c0.7-0.4,1.46-0.7,2.24-0.9
			c1.02-0.26,2.08-0.36,3.13-0.3l1.76,0.12L8.8,17.24c-1.02-0.58-1.96-1.3-2.74-2.16c-1.14-1.22-2-2.72-2.5-4.37
			c1.5,0.38,2.92,1.02,4.21,1.88c1.34,0.9,2.48,2,3.43,3.31l0.98,1.36l-0.26-1.66c-0.2-1.28-0.26-2.56-0.2-3.85
			c0.12-2.42,0.74-4.85,1.84-7.13c1.16,2.26,1.78,4.73,1.78,7.17c0,1.08-0.1,2.16-0.34,3.23l-0.42,1.96l1.14-1.66
			c0.88-1.26,1.96-2.36,3.23-3.23c1.1-0.76,2.28-1.32,3.57-1.7c-0.2,1.22-0.7,2.78-1.88,4.27c-0.68,0.86-1.5,1.58-2.44,2.16
			l-1.46,0.88l1.7-0.14c1.14-0.1,2.28-0.06,3.41,0.08c1.08,0.14,2.14,0.38,3.17,0.72C24.33,19.03,23.33,19.81,21.96,20.29z"/>
	</g>
</g>
<g class="st0">
	<path class="st1" d="M23.88,7.89L23.88,7.89c-1.33-1.33-3.09-2.06-4.95-2.06l0,0c-1.58,0-3.09,0.53-4.32,1.51
		c0.15-1.91,1.23-2.54,1.31-2.59c0.25-0.13,0.33-0.43,0.2-0.65c-0.13-0.25-0.43-0.33-0.68-0.2c-0.03,0.03-0.4,0.23-0.8,0.7
		c-0.1-0.35-0.28-0.73-0.55-1.08c-0.68-0.9-1.78-1.38-3.29-1.48c-0.15,0-0.28,0.05-0.38,0.15c-0.1,0.1-0.15,0.25-0.15,0.38
		c0.1,1.48,0.6,2.59,1.46,3.29c0.68,0.55,1.46,0.7,1.99,0.73c-0.05,0.23-0.08,0.48-0.1,0.75c-1.23-0.98-2.74-1.51-4.32-1.51
		c-1.86,0-3.62,0.73-4.95,2.06c-1.28,1.31-2.01,3.07-2.01,4.93c0,2.51,1.08,4.93,2.94,6.61l8.52,7.64c0.1,0.08,0.2,0.13,0.33,0.13
		c0.13,0,0.23-0.05,0.33-0.13l8.52-7.62c1.89-1.68,2.94-4.1,2.94-6.61C25.92,10.96,25.19,9.2,23.88,7.89z M11.31,3.09
		c0.88,0.15,1.56,0.48,1.99,1.01c0.4,0.5,0.5,1.11,0.53,1.48c-0.38-0.03-0.98-0.13-1.48-0.53C11.81,4.65,11.46,3.97,11.31,3.09z
		 M22.3,18.68l-8.19,7.34l-8.17-7.34c-1.68-1.48-2.64-3.62-2.64-5.86c0-1.61,0.63-3.09,1.76-4.25c1.13-1.13,2.64-1.76,4.22-1.76
		c1.61,0,3.09,0.63,4.22,1.76l0.25,0.25c0.2,0.2,0.5,0.2,0.7,0l0.25-0.25c1.13-1.13,2.64-1.76,4.22-1.76l0,0
		c1.61,0,3.09,0.63,4.22,1.76l0.03,0.03c1.13,1.13,1.76,2.64,1.76,4.22C24.93,15.06,23.98,17.19,22.3,18.68z"/>
	<path class="st1" d="M22.12,9.63c-0.85-0.85-1.99-1.31-3.17-1.31c-0.28,0-0.5,0.23-0.5,0.5s0.23,0.5,0.5,0.5
		c0.93,0,1.81,0.38,2.49,1.03c0.68,0.68,1.03,1.56,1.03,2.49c0,0.28,0.23,0.5,0.5,0.5s0.5-0.23,0.5-0.5
		C23.45,11.61,22.97,10.48,22.12,9.63z"/>
</g>
<g transform="translate(0,-1004.3622)" class="st0">
	<path class="st1" d="M15.58,1013.65c-0.27,0-0.48,0.22-0.48,0.49v1.44c0,0.09,0.02,0.17,0.07,0.25H16
		c0.04-0.08,0.07-0.16,0.07-0.25v-1.44c0-0.27-0.21-0.49-0.48-0.49C15.59,1013.65,15.58,1013.65,15.58,1013.65z"/>
	<path class="st1" d="M14.12,1015.59c-0.27,0-0.48,0.22-0.48,0.49v1.72l0.97-0.82v-0.91c0-0.27-0.21-0.49-0.48-0.49
		C14.13,1015.59,14.13,1015.59,14.12,1015.59L14.12,1015.59z M14.62,1019.52l-0.97,0.81v2.76c0,0.27,0.21,0.49,0.48,0.49
		s0.49-0.21,0.49-0.48c0,0,0-0.01,0-0.01V1019.52z"/>
	<path class="st1" d="M12.67,1013.65c-0.27,0-0.48,0.22-0.48,0.49v1.44c0,0.27,0.21,0.49,0.48,0.49c0.27,0,0.49-0.21,0.49-0.48
		c0,0,0-0.01,0-0.01v-1.44c0-0.27-0.21-0.49-0.48-0.49C12.68,1013.65,12.67,1013.65,12.67,1013.65L12.67,1013.65z"/>
	<path class="st1" d="M13.16,1010.74c-0.1,0-0.19,0.03-0.27,0.08l-1.45,0.97c-0.13,0.09-0.22,0.24-0.22,0.4v1.45
		c0,0.27,0.22,0.48,0.48,0.48h4.85c0.13,0,0.25-0.05,0.34-0.14l0.97-0.97c0.09-0.09,0.14-0.21,0.14-0.34v-1.45
		c0-0.27-0.22-0.48-0.48-0.48H13.16z M13.31,1011.71h3.73v0.77l-0.69,0.69h-4.16v-0.71L13.31,1011.71z"/>
	<path class="st1" d="M18.97,1010.74c-0.27,0-0.48,0.22-0.48,0.49c0,0,0,0,0,0v1.44c0,0.27,0.21,0.49,0.48,0.49
		c0.27,0,0.49-0.21,0.49-0.48c0,0,0-0.01,0-0.01v-1.44c0-0.27-0.21-0.49-0.48-0.49C18.98,1010.74,18.98,1010.74,18.97,1010.74
		L18.97,1010.74z"/>
	<path class="st1" d="M12.5,1015.1c-0.17,0-0.33,0.09-0.42,0.24l-2.24,3.88c-0.04,0.07-0.07,0.16-0.07,0.24v1.59l0.97-0.81v-0.65
		l2.04-3.52h2.54l0.13,0.21l0.75-0.63l-0.2-0.33c-0.09-0.14-0.24-0.23-0.41-0.23H12.5z M17.24,1017.32l-0.75,0.63l1.04,1.66v5.92
		h-6.79v-2.75l-0.97,0.81v2.42c0,0.27,0.22,0.48,0.48,0.48h7.76c0.27,0,0.48-0.22,0.48-0.48v-6.54c0-0.09-0.03-0.18-0.07-0.26
		L17.24,1017.32z"/>
	<path class="st1" d="M14.62,1007.1c-6.42,0-11.63,5.21-11.63,11.63c0,6.42,5.21,11.63,11.63,11.63s11.63-5.21,11.63-11.63
		C26.25,1012.32,21.04,1007.1,14.62,1007.1z M14.62,1008.07c5.9,0,10.66,4.77,10.66,10.66s-4.77,10.66-10.66,10.66
		s-10.66-4.77-10.66-10.66S8.72,1008.07,14.62,1008.07z"/>
	<path class="st1" d="M22.84,1010.98c-0.11,0-0.21,0.04-0.3,0.12l-16.97,14.06c-0.21,0.17-0.23,0.48-0.06,0.68s0.48,0.23,0.68,0.06
		l16.97-14.06c0.21-0.17,0.24-0.47,0.07-0.68C23.14,1011.04,23,1010.97,22.84,1010.98z"/>
</g>
<g>
	<path d="M14.26,3.14c-6.04,0-10.93,4.92-10.93,10.93c0,6.04,4.92,10.93,10.93,10.93c6.04,0,10.93-4.92,10.93-10.93
		C25.2,8.04,20.3,3.14,14.26,3.14z M4.28,14.08c0-2.71,1.08-5.16,2.82-6.97c-1.23,1.85-1.94,4.19-1.94,6.48
		c0,2.54,1.04,4.94,2.87,6.55c1.45,1.28,3.28,1.96,5.25,1.96c0.35,0,0.71-0.02,1.06-0.07c3.11-0.37,4.65-2.78,4.52-4.85
		c-0.11-1.65-1.37-3.59-4.59-3.59c-2.56,0-3.55-1.39-3.64-2.71c-0.11-1.63,1.17-3.55,3.7-3.86c2.07-0.26,4.06,0.33,5.56,1.68
		c1.61,1.43,2.54,3.55,2.54,5.84c0,3.95-2.54,9.52-8.16,9.52C8.75,24.06,4.28,19.59,4.28,14.08z M21.43,21.04
		c1.23-1.87,1.94-4.19,1.94-6.48c0-2.54-1.04-4.94-2.87-6.55c-1.7-1.52-3.95-2.18-6.3-1.9c-3.11,0.37-4.65,2.78-4.52,4.85
		c0.11,1.65,1.37,3.59,4.59,3.59c2.56,0,3.55,1.39,3.64,2.71c0.11,1.63-1.17,3.55-3.7,3.86c-2.07,0.24-4.06-0.33-5.56-1.68
		c-1.61-1.43-2.54-3.55-2.54-5.84c0-3.95,2.54-9.52,8.16-9.52c5.51,0,9.99,4.48,9.99,9.99C24.25,16.79,23.17,19.24,21.43,21.04z"/>
</g>
</svg>
