<?xml version="1.0" encoding="utf-8"?>
<!-- Generator: Adobe Illustrator 23.0.1, SVG Export Plug-In . SVG Version: 6.00 Build 0)  -->
<svg version="1.1" xmlns="http://www.w3.org/2000/svg" xmlns:xlink="http://www.w3.org/1999/xlink" x="0px" y="0px"
	 viewBox="0 0 73.1 44" style="enable-background:new 0 0 73.1 44;" xml:space="preserve">
<style type="text/css">
	.st0{fill:#FDF3C2;}
	.st1{fill:#570100;}
	.st2{fill:#FED691;stroke:#570100;stroke-width:3;stroke-miterlimit:10;}
</style>
<g id="Layer_2">
	<g>
		<rect x="1.5" y="1.5" class="st0" width="70.1" height="41"/>
		<path class="st1" d="M70.1,3v38H3V3H70.1 M73.1,0H0v44h73.1V0L73.1,0z"/>
	</g>
	<polyline class="st2" points="1,3 36.5,24.5 72.1,3 	"/>
</g>
<g id="Layer_1">
	<path class="st1" d="M45.8,27.8H25.4c-0.7,0-1.2,0.5-1.2,1.2s0.5,1.2,1.2,1.2h11.4V34c0,2.9,2.3,5.2,5.2,5.2c2.9,0,5.2-2.3,5.2-5.2
		v-5.2C47,28.3,46.5,27.8,45.8,27.8z M42,36.8c-1.4,0-2.6-1.1-2.6-2.6v-3.8h5.2v3.8C44.4,35.5,43.3,36.8,42,36.8z"/>
	<path class="st1" d="M14.4,23.5c0.5,0.5,1.1,0.8,1.9,0.8c0.8,0,1.3-0.3,1.9-0.8l3.2-3.2l3.2,3.2c0.5,0.5,1.1,0.8,1.9,0.8
		s1.3-0.3,1.9-0.8c1.1-1.1,1.1-2.6,0-3.4L25,16.9l3.2-3.2c1.1-1.1,1.1-2.6,0-3.4s-2.6-1.1-3.4,0l-3.2,3.2L17.9,10
		c-1.1-1.1-2.6-1.1-3.4,0c-0.8,1.1-1.1,2.6,0,3.4l3.2,3.2l-3.2,3.2C13.4,20.8,13.4,22.4,14.4,23.5z"/>
	<path class="st1" d="M46.1,23.5c0.5,0.5,1.1,0.8,1.9,0.8c0.8,0,1.3-0.3,1.9-0.8l3.2-3.2l3.2,3.2c0.5,0.5,1.1,0.8,1.9,0.8
		c0.8,0,1.3-0.3,1.9-0.8c1.1-1.1,1.1-2.6,0-3.4l-3.2-3.2l3.2-3.2c1.1-1.1,1.1-2.6,0-3.4c-1.1-0.8-2.6-1.1-3.4,0l-3.2,3.2L49.5,10
		c-1.1-1.1-2.6-1.1-3.4,0c-0.8,1.1-1.1,2.6,0,3.4l3.2,3.2l-3.2,3.2C45,20.8,45,22.4,46.1,23.5z"/>
</g>
</svg>
