<?xml version="1.0" encoding="utf-8"?>
<!-- Generator: Adobe Illustrator 21.0.2, SVG Export Plug-In . SVG Version: 6.00 Build 0)  -->
<svg version="1.1" id="Layer_2" xmlns="http://www.w3.org/2000/svg" xmlns:xlink="http://www.w3.org/1999/xlink" x="0px" y="0px"
	 viewBox="0 0 860 532.1" style="enable-background:new 0 0 860 532.1;" xml:space="preserve">
<style type="text/css">
	.st0{fill:none;stroke:#80B966;stroke-width:17;stroke-linecap:round;stroke-linejoin:round;}
</style>
<title>ico-shipping</title>
<circle class="st0" cx="359.7" cy="462.1" r="61.5"/>
<circle class="st0" cx="687.5" cy="462.1" r="61.5"/>
<path class="st0" d="M359.7,359.8c-56.6,0-102.4,45.8-102.4,102.4h41c0-33.9,27.5-61.5,61.5-61.5s61.5,27.5,61.5,61.5h41
	C462.2,405.6,416.3,359.7,359.7,359.8z"/>
<path class="st0" d="M687.5,359.7c-56.6,0-102.4,45.9-102.4,102.4h41c0.4-33.9,28.3-61.1,62.2-60.7c33.3,0.4,60.3,27.3,60.7,60.7h41
	C790,405.6,744.1,359.7,687.5,359.7C687.5,359.7,687.5,359.7,687.5,359.7z"/>
<polygon class="st0" points="564.6,70 564.6,192.9 728.5,192.9 728.5,192.9 701.2,70 "/>
<circle class="st0" cx="149" cy="149" r="140.5"/>
<path class="st0" d="M817.4,252.1l-88.9-59.2L696.4,48.5c-4.9-22-27.3-40-49.9-40H277.8c-20.2,0.1-39.7,7.7-54.6,21.4
	C289,70.7,309.3,157.2,268.4,223c-16.8,27.1-42.5,47.7-72.6,58.3v180.8h61.5c0.6-56.6,46.9-102,103.5-101.4
	c55.8,0.6,100.9,45.6,101.4,101.4h122.9c0.6-56.6,46.9-102,103.5-101.4c55.8,0.6,100.9,45.6,101.4,101.4h61.5V315.8
	C851.5,293.3,836.1,264.6,817.4,252.1z"/>
<polygon class="st0" points="149,78.7 149,149 198.6,198.7 149,149 "/>
</svg>
