<?xml version="1.0" encoding="utf-8"?>
<!-- Generator: Adobe Illustrator 23.0.3, SVG Export Plug-In . SVG Version: 6.00 Build 0)  -->
<svg version="1.1" id="Layer_1" xmlns="http://www.w3.org/2000/svg" xmlns:xlink="http://www.w3.org/1999/xlink" x="0px" y="0px"
	 viewBox="0 0 198.43 181.42" style="enable-background:new 0 0 198.43 181.42;" xml:space="preserve">
<style type="text/css">
	.st0{display:none;}
	.st1{display:inline;}
	.st2{fill:none;stroke:#000000;stroke-width:4.8756;stroke-miterlimit:10;}
	.st3{fill:none;stroke:#000000;stroke-width:4;stroke-linecap:round;stroke-miterlimit:10;}
</style>
<path class="st0" d="M100.3,109.41c-5.12,5.87-10.23,12.32-15.35,18.95c0.19,0.19,0.38,0.19,0.38,0.38
	c6.63,5.5,13.64,8.34,20.65,8.91c1.14,0,1.89,0.95,1.71,2.08c0,0.95-0.95,1.71-1.89,1.71c0,0,0,0-0.19,0
	c-7.77-0.57-15.35-3.79-22.74-9.66l-0.19-0.19c-8.15,10.8-15.92,22.36-22.36,33.54c-0.38,0.57-0.95,0.95-1.71,0.95
	c-0.38,0-0.57,0-0.95-0.19c-0.95-0.57-1.33-1.71-0.76-2.65c6.44-11.56,14.59-23.31,22.93-34.49c-6.63-7.58-21.03-28.42-3.79-53.63
	c8.91-13.07,25.39-23.5,48.89-31.46c17.43-5.87,32.4-7.96,32.59-7.96c0.57,0,0.95,0,1.33,0.38c0.38,0.38,0.57,0.76,0.76,1.33
	c0.19,1.33,3.98,33.73-7.58,63.67c-0.38,0.95-1.52,1.52-2.46,1.14c-0.95-0.38-1.52-1.52-1.14-2.46c9.66-25.01,8.15-52.49,7.58-59.88
	c-10.23,1.71-58.74,10.99-76.74,37.33c-15.73,22.93-3.41,41.5,2.84,48.51c5.12-6.44,10.23-12.7,15.16-18.57
	c-0.76,0-1.52-0.57-1.71-1.52c-0.19-0.76-3.41-16.68,0-25.96c0.38-0.95,1.52-1.52,2.46-1.14c0.95,0.38,1.52,1.52,1.14,2.46
	c-3.03,8.34,0,23.69,0,23.88c4.74-5.5,9.29-10.61,13.45-15.16c-0.38-2.08-2.27-12.89,0.19-19.33c0.38-0.95,1.52-1.52,2.46-1.14
	c0.95,0.38,1.52,1.52,1.14,2.46c-1.52,4.17-0.95,10.8-0.38,14.59c10.04-10.8,17.24-17.62,17.43-17.81c0.76-0.76,1.89-0.76,2.65,0
	s0.76,1.89,0,2.65c-0.19,0.19-7.39,7.2-17.62,18.19c2.84,0.57,11.56,1.71,16.68-0.19c0.95-0.38,2.08,0.19,2.46,1.14
	c0.38,0.95-0.19,2.08-1.14,2.46c-2.46,0.95-5.5,1.14-8.53,1.14c-5.68,0-10.8-1.14-11.18-1.14s-0.76-0.38-0.95-0.57
	c-3.98,4.36-8.34,9.1-12.7,14.4c3.6,0.57,15.73,2.46,22.93-0.19c0.95-0.38,2.08,0.19,2.46,1.14c0.38,0.95-0.19,2.08-1.14,2.46
	c-3.22,1.14-7.2,1.52-11.18,1.52c-7.39,0-14.4-1.33-14.78-1.52C100.87,109.79,100.49,109.6,100.3,109.41z M59.18,111.82
	c0.95,0,1.71-0.57,1.89-1.52c0.19-0.95-0.38-2.08-1.52-2.27c-2.65-0.57-5.31-1.52-7.96-2.84c-0.95-0.57-24.25-13.07-14.21-39.22
	c9.29-23.88,44.72-40.17,53.25-43.58c1.14,3.41,3.6,11.56,4.93,21.79c0.19,0.95,1.14,1.71,2.08,1.71c0.95-0.19,1.71-1.14,1.71-2.08
	c-1.89-14.02-5.68-24.07-5.68-24.44c-0.19-0.38-0.57-0.95-0.95-1.14c-0.38-0.19-0.95-0.19-1.52,0c-1.89,0.76-46.24,18-57.23,46.61
	c-9.66,25.01,8.53,39.22,14.4,43.01c-2.46,4.55-9.47,18.38-13.07,30.32c-0.38,0.95,0.19,2.08,1.33,2.27c0.19,0,0.38,0,0.57,0
	c0.76,0,1.52-0.57,1.89-1.33c3.41-11.56,10.42-25.2,12.89-29.56c2.46,1.14,4.93,1.89,7.2,2.46
	C58.8,111.82,58.99,111.82,59.18,111.82z M173.07,139.12c0,14.78-11.94,26.72-26.72,26.72c-14.78,0-26.72-11.94-26.72-26.72
	c0-14.78,12.13-26.72,26.72-26.72C160.94,112.4,173.07,124.33,173.07,139.12z M169.28,139.12c0-12.7-10.23-22.93-22.93-22.93
	c-12.7,0-22.93,10.23-22.93,22.93c0,12.7,10.42,22.93,22.93,22.93S169.28,151.81,169.28,139.12z M131.24,126.65
	c-0.28-0.6,0.09-1.21,0.79-1.21h2.11c0.41,0,0.68,0.27,0.77,0.5l11.34,25.5h0.18l11.34-25.5c0.09-0.23,0.41-0.5,0.77-0.5h2.11
	c0.7,0,1.07,0.6,0.79,1.21l-14.13,31.28c-0.14,0.28-0.42,0.51-0.79,0.51h-0.46c-0.33,0-0.65-0.23-0.79-0.51L131.24,126.65z"/>
<g class="st0">
	<g class="st1">
		<path d="M99.22,115.95l-1.95-2.89c-9.16-13.59-14-29.47-14-45.92c0-16.45,4.84-32.33,14-45.92l1.95-2.89l1.95,2.89
			c9.16,13.59,14,29.47,14,45.92c0,16.45-4.84,32.33-14,45.92L99.22,115.95z M99.22,26.88c-7.37,12.11-11.25,25.96-11.25,40.26
			c0,14.3,3.88,28.14,11.25,40.26c7.37-12.11,11.25-25.95,11.25-40.26S106.59,38.99,99.22,26.88z"/>
		<path d="M63.08,141.6c-10.3,0-20.23-3.03-28.74-8.76l-2.89-1.95l2.89-1.95c8.51-5.73,18.44-8.76,28.74-8.76
			c10.3,0,20.24,3.03,28.74,8.76l2.89,1.95l-2.89,1.95C83.31,138.57,73.38,141.6,63.08,141.6z M40.11,130.89
			c6.98,3.95,14.85,6.01,22.96,6.01s15.98-2.07,22.96-6.01c-6.98-3.94-14.85-6.01-22.96-6.01C54.97,124.87,47.1,126.94,40.11,130.89
			z"/>
		<path d="M93.64,123.4l-3.42-0.67c-11.3-2.2-21.59-7.68-29.75-15.85c-8.17-8.17-13.65-18.46-15.85-29.76l-0.67-3.42l3.42,0.67
			c11.3,2.2,21.59,7.68,29.76,15.85c8.17,8.17,13.65,18.46,15.85,29.76L93.64,123.4z M50.05,79.81c2.4,8.97,7.1,17.12,13.73,23.75
			c6.63,6.63,14.78,11.34,23.75,13.73c-2.4-8.97-7.1-17.12-13.73-23.75C67.17,86.91,59.02,82.21,50.05,79.81z"/>
		<path d="M104.8,123.4l0.67-3.42c2.2-11.3,7.68-21.59,15.85-29.75c8.17-8.17,18.46-13.65,29.76-15.85l3.42-0.67l-0.66,3.42
			c-2.2,11.29-7.68,21.59-15.85,29.76c-8.17,8.17-18.46,13.65-29.75,15.85L104.8,123.4z M148.39,79.81
			c-8.97,2.4-17.12,7.1-23.75,13.73c-6.63,6.63-11.33,14.78-13.73,23.75c8.97-2.4,17.12-7.1,23.75-13.73
			C141.29,96.93,145.99,88.78,148.39,79.81z"/>
		<path d="M135.35,141.6c-10.29,0-20.22-3.03-28.73-8.76l-2.89-1.95l2.89-1.95c8.5-5.73,18.44-8.76,28.73-8.76
			c10.3,0,20.24,3.03,28.75,8.76l2.89,1.95l-2.89,1.95C155.59,138.57,145.65,141.6,135.35,141.6z M112.4,130.89
			c6.98,3.95,14.84,6.01,22.95,6.01c8.12,0,15.99-2.07,22.97-6.01c-6.99-3.94-14.86-6.01-22.97-6.01
			C127.24,124.87,119.38,126.94,112.4,130.89z"/>
		<rect x="96.87" y="136.44" width="5" height="27"/>
	</g>
</g>
<g>
	<path class="st2" d="M140.61,133.78c0,0-1-22.12-1.3-25.4c2.9-2.63,7.05-5.14,7.38-12.19c0.43-9.3-5.54-15.96-10.85-17.11
		c-0.03-4.99-0.03-4.99-0.03-4.99c1.13-3.87,4.44-6.52,4.24-18.6c-0.11-6.42-1.13-11.92-3.07-16.63c4.63-2.78,7.74-7.75,7.74-13.47
		c0-8.75-7.21-15.83-16.1-15.83c-6.7,0-10.49,4.03-11.95,9.75c-1.36-0.54-2.74-1.03-4.15-1.43c0,0-2.6-1.28-14.29-1.22
		c-10.79,0.06-16.98,2.26-16.98,2.26c-1.7,0.62-3.29,1.29-4.82,1.98c-1.17-6.2-4.24-11.35-10.77-11.35c-8.89,0-16.1,7.09-16.1,15.83
		c0,6.23,3.7,11.57,9.02,14.15c-1.42,4.38-2.17,9.6-2.17,15.95c0,7.52,1.91,14.52,5.17,20.51l-0.7,5.7
		c-5.05,1.43-8.84,7.24-8.84,14.2c0,5.34,2.25,9.96,5.56,12.49l2.77,1.93c-0.48,5.19-1.38,24.96-1.38,24.96
		c0,0.63-9.57,9.57-7.14,19.47c2.94,11.93,12.39,18.07,21.46,17.65c3.72-0.17,8.48-1.47,10.99-3.91c7.39,2.05,10.86,2.39,17.66,2.39
		c7.15,0,8.21-0.18,16.5-2.61c2.13,1.75,2.98,2.54,5.82,3.26c11.1,2.79,20.84-6.02,24.13-17.87
		C151.19,143.72,140.61,133.78,140.61,133.78z"/>
	<path d="M82.26,49.57c-2.75,1.29-4.8,3.65-5.83,1.45c-1.02-2.2,0.37-5.02,3.12-6.3c2.75-1.28,5.81-0.54,6.83,1.66
		C87.41,48.59,85.01,48.29,82.26,49.57z"/>
	<path d="M114.13,49.57c2.75,1.29,4.8,3.65,5.83,1.45c1.03-2.2-0.37-5.02-3.12-6.3c-2.75-1.28-5.81-0.54-6.83,1.66
		C108.98,48.59,111.38,48.29,114.13,49.57z"/>
	<path d="M106.39,57.75c0,2-3.42,3.61-7.65,3.61c-4.22,0-7.64-1.61-7.64-3.61c0-1.99,3.42-3.61,7.64-3.61
		C102.96,54.15,106.39,55.76,106.39,57.75z"/>
	<path class="st3" d="M70.9,25.45c0,0-1.84-8.35-8.83-8.2"/>
	<path class="st3" d="M122.82,23.24c0,0,3.26-7.91,10.12-6.55"/>
</g>
<g class="st0">
	<path class="st1" d="M151.61,53.32L151.61,53.32c-7.15-7.15-16.6-11.07-26.6-11.07l0,0c-8.49,0-16.6,2.85-23.21,8.11
		c0.81-10.26,6.61-13.65,7.04-13.92c1.34-0.7,1.77-2.31,1.07-3.49c-0.7-1.34-2.31-1.77-3.65-1.07c-0.16,0.16-2.15,1.24-4.3,3.76
		c-0.54-1.88-1.5-3.92-2.96-5.8c-3.65-4.84-9.56-7.41-17.68-7.95c-0.81,0-1.5,0.27-2.04,0.81c-0.54,0.54-0.81,1.34-0.81,2.04
		c0.54,7.95,3.22,13.92,7.84,17.68c3.65,2.96,7.84,3.76,10.69,3.92c-0.27,1.24-0.43,2.58-0.54,4.03
		c-6.61-5.27-14.72-8.11-23.21-8.11c-9.99,0-19.45,3.92-26.6,11.07c-6.88,7.04-10.8,16.5-10.8,26.49c0,13.49,5.8,26.49,15.8,35.52
		l45.78,41.05c0.54,0.43,1.07,0.7,1.77,0.7s1.24-0.27,1.77-0.7l45.78-40.94c10.16-9.03,15.8-22.03,15.8-35.52
		C162.57,69.81,158.64,60.36,151.61,53.32z M84.07,27.53c4.73,0.81,8.38,2.58,10.69,5.43c2.15,2.69,2.69,5.96,2.85,7.95
		c-2.04-0.16-5.27-0.7-7.95-2.85C86.75,35.91,84.87,32.25,84.07,27.53z M143.12,111.29l-44.01,39.44l-43.9-39.44
		c-9.03-7.95-14.18-19.45-14.18-31.49c0-8.65,3.39-16.6,9.46-22.84c6.07-6.07,14.18-9.46,22.67-9.46c8.65,0,16.6,3.39,22.67,9.46
		l1.34,1.34c1.07,1.07,2.69,1.07,3.76,0l1.34-1.34c6.07-6.07,14.18-9.46,22.67-9.46l0,0c8.65,0,16.6,3.39,22.67,9.46l0.16,0.16
		c6.07,6.07,9.46,14.18,9.46,22.67C157.25,91.84,152.14,103.29,143.12,111.29z"/>
	<path class="st1" d="M142.15,62.67c-4.57-4.57-10.69-7.04-17.03-7.04c-1.5,0-2.69,1.24-2.69,2.69c0,1.45,1.24,2.69,2.69,2.69
		c5,0,9.73,2.04,13.38,5.53c3.65,3.65,5.53,8.38,5.53,13.38c0,1.5,1.24,2.69,2.69,2.69c1.45,0,2.69-1.24,2.69-2.69
		C149.3,73.3,146.72,67.23,142.15,62.67z"/>
</g>
</svg>
