<?xml version="1.0" encoding="utf-8"?>
<!-- Generator: Adobe Illustrator 24.1.0, SVG Export Plug-In . SVG Version: 6.00 Build 0)  -->
<svg version="1.1" id="Layer_1" xmlns="http://www.w3.org/2000/svg" xmlns:xlink="http://www.w3.org/1999/xlink" x="0px" y="0px"
	 viewBox="0 0 100 96.8" style="enable-background:new 0 0 100 96.8;" xml:space="preserve">
<path d="M93,57.9h-3.9v-11c0-3-1.8-5.6-4.5-6.7l9.7-8.1c0.8-0.7,1-2,0.2-2.8L72.4,2.8c-0.7-0.8-2-1-2.8-0.2c0,0,0,0,0,0l-25,20.9
	H15.1C9.5,23.5,5,28,5,33.6V82c0,5.6,4.5,10.1,10.1,10.1h66.8c4,0,7.2-3.2,7.2-7.2v-11H93c1.1,0,2-0.9,2-2v-12
	C95,58.8,94.1,57.9,93,57.9z M79,39.7H67.3l18-15.1l4.8,5.7L79,39.7z M70.6,6.9l12.8,15.3L62.7,39.7H31.5L70.6,6.9z M15.1,27.5h24.7
	L25.3,39.7H15.1c-3.4,0-6.1-2.7-6.1-6.1C9,30.2,11.7,27.5,15.1,27.5z M85.1,84.8c0,1.8-1.5,3.2-3.2,3.2H15.1C11.7,88.1,9,85.4,9,82
	V41.6c1.7,1.3,3.9,2.1,6.1,2.1h66.8c1.8,0,3.2,1.5,3.2,3.2v11H75c-4.4,0-8,3.6-8,8c0,4.4,3.6,8,8,8h10.1V84.8z M91,69.9H75
	c-2.2,0-4-1.8-4-4c0-1.1,0.4-2.1,1.2-2.8c0.7-0.8,1.8-1.2,2.8-1.2h16V69.9z"/>
</svg>