<?xml version="1.0" encoding="utf-8"?>
<!-- Generator: Adobe Illustrator 21.1.0, SVG Export Plug-In . SVG Version: 6.00 Build 0)  -->
<svg version="1.1" id="Layer_1" xmlns="http://www.w3.org/2000/svg" xmlns:xlink="http://www.w3.org/1999/xlink" x="0px" y="0px"
	 viewBox="0 0 159 256.4" style="enable-background:new 0 0 159 256.4;" xml:space="preserve">
<style type="text/css">
	.st0{fill:#7DC242;stroke:#343434;stroke-width:4;stroke-miterlimit:10;}
	.st1{fill:#39783A;}
	.st2{fill:none;stroke:#39783A;stroke-width:3;stroke-linecap:round;stroke-miterlimit:10;}
	.st3{fill:none;stroke:#343434;stroke-width:3;stroke-linecap:round;stroke-miterlimit:10;}
	.st4{fill:#91CA67;}
	.st5{fill:none;stroke:#7DC242;stroke-linecap:round;stroke-miterlimit:10;}
</style>
<path class="st0" d="M144.3,190.8c0-0.2,0-0.4,0-0.6v-25.7c0-4.3-0.7-14.9-2.2-15.8l1.3,4.2c0,0-0.9-2.6-1.6-5.2
	c4.3-3.9,7.1-10.3,7.1-17.5c0-10.6-8.2-22.2-16-23.9c-0.6-6.9,1.4-11,1.9-17.5l0,0c1.7-5.7,2.6-11.7,2.6-18c0-9.4-1.7-17.5-4.5-24.4
	c6.8-4.1,11.4-11.4,11.4-19.8c0-12.9-10.6-23.3-23.7-23.3c-9.8,0-15.4,5.9-17.6,14.3c-2-0.8-4-1.5-6.1-2.1c0,0-3.8-1.9-21-1.8
	C60.1,13.8,51,17.1,51,17.1C48.5,18,46.2,19,43.9,20c-1.7-9.1-6.2-16.7-15.8-16.7C15,3.3,4.4,13.7,4.4,26.6c0,9.2,5.4,17,13.3,20.8
	c-2.1,6.4-3.2,14.1-3.2,23.4c0,11,2.8,21.3,7.6,30.1l-1,8.4c-7.4,2.1-13,10.6-13,20.9c0,7.8,3.3,14.6,8.2,18.4l-0.4,3.4h0
	c-0.9,4-1.3,8.2-1.3,12.5v25.7c0,0.9,0.1,1.8,0.1,2.7c-11.6,6.5-13.8,18.7-10.3,33.3c4.3,17.5,20.2,27.8,33.6,27.1
	c5.5-0.2,12-5.1,15.6-8.7c8.5,3.8,15.8,7.3,25.8,7.3c10.5,0,20.4-2.4,29.2-6.6c3.1,2.6,6.8,4.5,11,5.6c16.3,4.1,29.6-7.6,34.5-25
	C158.1,211.1,156,197.5,144.3,190.8z"/>
<path class="st1" d="M52.5,61.3c-4,1.9-7,5.4-8.6,2.1c-1.5-3.2,0.5-7.4,4.6-9.3c4-1.9,8.5-0.8,10,2.4C60.1,59.9,56.6,59.5,52.5,61.3
	z"/>
<path class="st1" d="M99.4,61.4c4,1.9,7,5.4,8.6,2.1c1.5-3.2-0.5-7.4-4.6-9.3c-4-1.9-8.5-0.8-10,2.4C91.8,59.9,95.3,59.5,99.4,61.4z
	"/>
<path class="st2" d="M58.9,74.2c0,0,8.1-5.1,17.9-5.3c11-0.1,17.9,5.3,17.9,5.3"/>
<ellipse class="st2" cx="76.8" cy="72.3" rx="7.1" ry="3.4"/>
<path class="st2" d="M68.7,92.4c0,0,8.2,4.5,8.5-10.7c0,0-0.5,12.9,7.8,10.5"/>
<path class="st3" d="M36.8,27.2c0,0-1.6-12.5-11.9-13.2"/>
<path class="st3" d="M110.7,23c0,0,4.8-11.6,14.9-9.6"/>
<path class="st4" d="M87.2,24.3c0,2-5.4,1.9-12,1.9s-12,0.1-12-1.9c0-2,5.4-3.6,12-3.6C81.8,20.6,87.2,22.3,87.2,24.3z"/>
<path class="st2" d="M63.3,105c0,0,12.4,8.2,27-0.2"/>
<path class="st4" d="M22.8,123.3c-1.5,4.8-2.2,9.6-4.8,8.7c-2.7-0.9-3.6-5.4-2-10.1c1.5-4.7,8.3-7.8,10.8-6.6
	C30.8,117.5,24.3,118.5,22.8,123.3z"/>
<path class="st4" d="M123.9,121c-1.6,5.5-0.3,7.3-2.1,9.1c-2,2-4.2-2.1-3.5-7.8c0.7-5.7,7-11.3,9.7-10.9
	C132.5,112.3,125.7,114.9,123.9,121z"/>
<polyline class="st5" points="129.2,101.4 128.9,103.2 131.9,82.8 "/>
<path class="st4" d="M20.5,206c-3.9,4.4-3.3,12.9-7.8,10.1c-2.3-1.5-1.9-9.3,1.8-13.8c4.1-4.8,12.2-5.9,14.4-4.2
	C31.1,200,24.4,201.7,20.5,206z"/>
<path class="st4" d="M126.2,205.8c-5.3,6.1-6.2,16.4-10.9,13.8c-2.4-1.3-0.5-11,4.7-17.1c5.6-6.7,15.2-9.4,17.4-7.7
	C139.5,196.4,131.5,199.7,126.2,205.8z"/>
<path class="st1" d="M47.5,212.8c3.9,7.4,3.5,21.4,5.2,14.6c2.3-9.1,0.5-13.3-1.8-17.3c-1.3-2.2-3.1-6.3-12.4-9.4
	C32.7,198.8,43.6,205.4,47.5,212.8z"/>
<path class="st1" d="M36.4,139.2c-5.6,5.5-16,9.1-9.2,8.1c9.2-1.3,9.7-2.2,12.7-5.4c1.7-1.8,4.6-6,4.6-9.7
	C44.5,122.3,42,133.7,36.4,139.2z"/>
<path class="st4" d="M34.8,13.2c-0.5,1.4-4.6-1-6.7-1.7c-2.2-0.7-3.9-1.3-3.5-2.7c0.5-1.4,2.6-2,4.8-1.3
	C31.5,8.2,35.2,11.7,34.8,13.2z"/>
<path class="st4" d="M121.9,9.3c0.3,1.5-1.5,1.8-3.7,2.3c-2.2,0.5-5.7,3-6,1.5c-0.3-1.5,2.9-5.1,5.1-5.6
	C119.5,7.1,121.6,7.9,121.9,9.3z"/>
<path class="st1" d="M123.6,134.6c1.1-1,2.3,1.5,3.9,3.2c1.6,1.6,5.5,2,4.5,3.1c-1.1,1-3.9,0.6-6.3-0.9
	C123.7,138.8,122.5,135.6,123.6,134.6z"/>
<path class="st4" d="M79.5,71.9c0,0.7-1.2,0.6-2.6,0.6s-2.6,0-2.6-0.6c0-0.7,1.2-1.2,2.6-1.2C78.3,70.7,79.5,71.2,79.5,71.9z"/>
<path class="st4" d="M32,86.7c2.8,4.1,6.2,7.6,3.9,9.2c-2.3,1.6-6.5-0.5-9.3-4.6C23.8,87.1,23,81,25.5,79.8
	C29.8,77.9,29.2,82.6,32,86.7z"/>
<g>
</g>
<g>
</g>
<g>
</g>
<g>
</g>
<g>
</g>
<g>
</g>
</svg>
