<?xml version="1.0" encoding="utf-8"?>
<!-- Generator: Adobe Illustrator 18.0.0, SVG Export Plug-In . SVG Version: 6.00 Build 0)  -->
<!DOCTYPE svg PUBLIC "-//W3C//DTD SVG 1.1//EN" "http://www.w3.org/Graphics/SVG/1.1/DTD/svg11.dtd">
<svg version="1.1" id="Isolation_Mode" xmlns="http://www.w3.org/2000/svg" xmlns:xlink="http://www.w3.org/1999/xlink" x="0px"
	 y="0px" viewBox="0 0 283.3 276.5" enable-background="new 0 0 283.3 276.5" xml:space="preserve">
<path fill="#FFFFFF" d="M224.8,175.7c-1.8-12.9-8.6-24.4-8.6-24.4s-4.3-13.7-5.7-30.2c-1.5-16.6-0.5-24-14.5-30.4
	c4.3,7.9,10.1,19.3,9.7,25.9c-0.4,6.6-4.2,9.9-4.2,9.9s-2.5-9.6-8.4-9.2c-5.8,0.5-6.6,7.3-8.4,7.4c-1.8,0.1-16.9-6.8-45.5-6.3
	c-28.6,0.5-44,4.4-52.9,7.1c-8.8,2.7-17.1-1.4-17.6-11.6c-0.7-14.9,9.7-25.6,9.7-25.6s-10.5,1.9-13.8,18.2
	c-3.3,16.1-3.2,25.8-10.7,52.2c-5.7,19.8-7.6,44,6.7,65.7c0,0-24.7-8.1-33.1-40.7c-8.2-31.4-3.2-69.5,9.4-89.5
	c12.6-20,24.7-25.3,32.2-27c0,0-1.1,12.4,4.8,15.7c5.9,3.3,12.7,1.4,14.8-2c0,0,8.8,28.8,51.5,28.8c26.3,0,38.3-13.9,41-29.4
	c0,0,7.1,6.2,16.2,4.3c9.1-1.9,5.5-17.5,5.5-17.5s18.9,4.8,32.6,25.9c13.7,21.1,17.7,46,16,69.1c-1.6,23.1-10.9,51-37.5,65.8
	C222.5,209.5,226.6,188.6,224.8,175.7z"/>
<path fill="#FFFFFF" d="M137.8,252.1c-44.9,0-81.3-20.9-81.3-64.2c0-41.6,36.4-64.2,81.3-64.2c54.4,0,81.3,28.7,81.3,64.2
	C219.1,230.9,182.7,252.1,137.8,252.1z"/>
<path fill="#FFFFFF" d="M185.3,31.9c2.8-1.3,8.5,5.4,9.2,13.8c0.7,8.5-0.7,13.1,1.4,17.5c3.2,6.6,3.2,15.8-4.5,15.6
	c-4.9-0.1-7.2-2.8-7.2-9c0-6.6-0.1-9.3-1.4-16.6C181.3,45.5,182.4,33.1,185.3,31.9z"/>
<path fill="#FFFFFF" d="M112,7.6c7.9-5.9,17.9-7.9,28.5-7.6c10.6,0.3,22.7,5.6,29.3,17.9c6.6,12.3,8.5,33.5,8.6,46.5
	c0.1,13-2.8,21.1-8.3,27.3c-5.5,6.2-18,9.9-34.8,9.9c-17.2,0-28.7-5.4-36.6-12.3c-7.9-6.9-9-23.7-6.5-42.1
	C94.6,28.7,104.1,13.5,112,7.6z"/>
<path fill="#FFFFFF" d="M87.5,57.2c-1.6,13.7-1.4,17.1-1,18.7c0.4,1.7-1.8,3.1-5.8,3.1c-3.9,0-7.6-1.3-7.5-4.5
	c0.1-3.2,2.7-7.6,3.5-15.9c0.8-8.3,0-13.1,1-18c1-4.9,4.7-8.5,6.6-7.6C87.7,34.5,89,43.5,87.5,57.2z"/>
<path fill="#FFFFFF" d="M92.7,274.4c-24.8-3-46.8-9.8-66-23c-28.8-19.8-28.8-44.1-24.7-58.6c4.1-14.5,13-15.6,15-13.1
	c2,2.5,8.1,23.3,24.8,40.8c16.5,17.2,39.1,34.7,85.2,37.7c0,0-6.2,1.3-14.1,4.7c-1.8,0.8-3.6,1.6-5.5,2.6
	C101.4,268.6,96.1,272,92.7,274.4z"/>
<path fill="#FFFFFF" d="M132.2,276.5c-9.8,0-19.2-0.3-28.2-1c3.6-2.8,9.4-7.1,14.4-9.8c3.9-2,8.3-2.9,15.3-3.6
	c42.5-3.9,76.8-21.3,96.8-39.4c24.4-22.1,29.2-51.9,29.2-51.9c19.2,6.4,38.6,39.5,6.6,68.8C233,270,166.8,276.5,132.2,276.5z"/>
</svg>
