<?xml version="1.0" encoding="utf-8"?>
<!-- Generator: Adobe Illustrator 24.1.0, SVG Export Plug-In . SVG Version: 6.00 Build 0)  -->
<svg version="1.1" id="Layer_1" xmlns="http://www.w3.org/2000/svg" xmlns:xlink="http://www.w3.org/1999/xlink" x="0px" y="0px"
	 viewBox="0 0 238.51 115.27" style="enable-background:new 0 0 238.51 115.27;" xml:space="preserve">
<style type="text/css">
	.st0{fill:#13193D;}
</style>
<g>
	<path class="st0" d="M15.49,105.87l4.15-13.85c0.74-2.19,3.62-2.54,4.82-2.03c0.66,0.16,13.09,5.56,22.84,3.34
		c5.91-1.35,9.36-6.02,8.18-11.2c-1.42-6.2-7.67-9.76-18.63-11.45C22.99,68.56,4.77,62.3,0.73,44.56
		C-2.61,29.93,5.4,12.55,28.16,7.37C43.53,3.86,57.14,9,62.31,11.24c2.01,0.63,2.32,3.36,1.96,4.53l-4.94,13.1
		c-0.67,1.86-3.02,3.8-4.59,3.07c-1.5-0.44-14.14-6.11-23.15-4.05c-5.32,1.21-8.5,5.67-7.59,9.66c1.25,5.47,6.62,8.59,19.38,10.66
		C55.96,50.16,76.34,55,80.92,75.1c3.47,15.22-6.18,33.59-27.91,38.55c-19.21,4.38-31.67-1.17-35.84-3.8
		C15.35,108.7,14.78,108.21,15.49,105.87z"/>
	<path class="st0" d="M88.43,88.3l9.7-9.39c1.08-1.04,2.6-1.17,3.79-0.24c0,0,9.28,7.12,16.56,7.24c6.52,0.1,13.27-5.24,13.38-11.91
		s-6.62-12.39-17.84-12.57l-8.49-0.14c-1.51-0.02-2.86-1.41-2.83-2.92l0.2-12.58c0.03-1.67,1.41-2.86,2.92-2.83l8.49,0.14
		c10.61,0.17,16.3-4.89,16.4-11.41c0.1-6.52-5.43-11.46-11.94-11.56c-6.67-0.11-10.97,3.31-13.29,5.85c-1.08,1.2-2.9,1.17-4.09,0.09
		l-9.1-9.24c-1.2-1.08-1.01-2.9,0.06-3.94c0,0,12.64-13.14,29.16-12.87c17.58,0.28,32.56,11.29,32.29,28.26
		c-0.19,11.67-9.12,20.16-15.99,23.24l-0.01,0.45c7.07,3.15,18.14,12.72,17.92,25.76c-0.27,16.52-14.86,28.71-35.78,28.37
		c-19.09-0.31-28.64-9.86-31.75-14C87.33,91.01,87.5,89.34,88.43,88.3z"/>
	<path class="st0" d="M163.89,89.65l11.47-6.92c1.1-0.67,2.64-0.61,3.65,0.4c0,0,8.78,9.58,15.86,11.27
		c7.96,1.9,15.42-2.55,17.36-10.66c1.9-7.96-2.19-15.64-11.77-17.94l-22.71-5.43c-2.95-0.71-3.9-3.9-3.34-6.25l10.93-45.71
		c0.35-1.48,1.85-2.52,3.47-2.13l47.49,11.35c1.62,0.39,2.48,2,2.13,3.47l-3.1,12.98c-0.36,1.48-1.85,2.52-3.47,2.13l-30.38-7.26
		l-3.77,15.78l10.47,2.5c20.35,4.87,30.2,22.34,25.59,41.66c-4.41,18.43-23.85,30-44.5,25.06c-15.33-3.67-23.64-13.92-26.27-19.22
		C161.6,92.07,161.7,91,163.89,89.65z"/>
</g>
</svg>
