<?xml version="1.0" encoding="utf-8"?>
<!-- Generator: Adobe Illustrator 25.1.0, SVG Export Plug-In . SVG Version: 6.00 Build 0)  -->
<svg version="1.1" id="Layer_1" xmlns="http://www.w3.org/2000/svg" xmlns:xlink="http://www.w3.org/1999/xlink" x="0px" y="0px"
	 viewBox="0 0 155.1 118.7" style="enable-background:new 0 0 155.1 118.7;" xml:space="preserve">
<style type="text/css">
	.st0{fill:#FFFFFF;}
</style>
<g>
	<path class="st0" d="M9.7,46.1l-0.6-2.7C9,43,9.5,42.6,9.7,42.6c0.1,0,2.7-0.3,4.2-1.6c0.9-0.8,1-1.9,0.3-2.7
		c-0.8-0.9-2.2-0.9-4.2-0.2c-2.5,1-6.2,1.6-8.6-1c-1.9-2.2-2.2-5.8,1.1-8.9c2.3-2,5-2.5,6.1-2.6c0.4-0.1,0.7,0.4,0.8,0.6L9.8,29
		c0.1,0.4-0.1,0.9-0.5,1c-0.3,0.1-3,0.3-4.3,1.5c-0.8,0.7-0.9,1.8-0.4,2.3c0.7,0.8,1.9,0.8,4.3,0c2.3-0.9,6.2-2,8.9,1
		c2,2.2,2.1,6.2-1.1,9.1c-2.8,2.5-5.4,2.8-6.4,2.8C10,46.6,9.8,46.6,9.7,46.1z"/>
	<path class="st0" d="M21.5,14.5c2.5-1.5,4.8-1.8,7.5-1.3c0.4,0.1,0.5,0.4,0.5,0.7l-0.7,3.2c-0.1,0.3-0.4,0.5-0.6,0.4
		c-1.4-0.3-2.9,0-4.2,0.8c-2.8,1.7-3.5,5.3-1.8,8.1c1.7,2.8,5.2,3.8,8,2.1c1.2-0.7,2.2-1.9,2.6-3.2c0.1-0.3,0.4-0.5,0.7-0.4l3.2,0.9
		c0.3,0.1,0.5,0.4,0.4,0.7c-0.7,2.7-2.4,4.8-4.7,6.1c-5,3-11.5,1.4-14.5-3.6C14.8,24,16.5,17.5,21.5,14.5z"/>
	<path class="st0" d="M35.1,8.4c-0.1-0.3,0.1-0.6,0.4-0.7l3.3-1.1c0.3-0.1,0.6,0.1,0.7,0.4l2.2,7l8-2.5l-2.2-7
		c-0.1-0.3,0.1-0.6,0.4-0.7l3.3-1c0.3-0.1,0.6,0.1,0.7,0.4l5.8,18.5c0.1,0.3-0.1,0.6-0.4,0.7l-3.3,1c-0.3,0.1-0.6-0.1-0.7-0.4
		L51,15.6l-8,2.5l2.3,7.3c0.1,0.3-0.1,0.6-0.4,0.7l-3.3,1c-0.3,0.1-0.6-0.1-0.7-0.4L35.1,8.4z"/>
	<path class="st0" d="M60.9,1.6c0-0.3,0.2-0.6,0.5-0.6l12.1-1C73.8,0,74,0.2,74,0.5l0.3,3.2c0,0.3-0.2,0.6-0.5,0.6L65.7,5L66,8.6
		L72.7,8c0.3,0,0.6,0.2,0.6,0.5l0.3,3.2c0,0.3-0.2,0.6-0.5,0.6l-6.7,0.6l0.3,3.9l8.1-0.7c0.3,0,0.6,0.2,0.6,0.5l0.3,3.2
		c0,0.3-0.2,0.6-0.5,0.6l-12.1,1c-0.3,0-0.6-0.2-0.6-0.5L60.9,1.6z"/>
	<path class="st0" d="M81.9,0.5c0-0.3,0.3-0.5,0.6-0.5l7.1,0.9c5.6,0.7,9.6,5.8,8.9,11.4C97.7,18,92.6,22,87,21.3l-7.1-0.9
		c-0.3,0-0.5-0.3-0.4-0.6L81.9,0.5z M87.2,16.9c3.3,0.4,6-1.9,6.4-5.2C94,8.5,92,5.6,88.7,5.2l-2.8-0.3l-1.5,11.8L87.2,16.9z"/>
	<path class="st0" d="M107,4.8c0.1-0.3,0.4-0.4,0.7-0.3l3.4,1.3c0.3,0.1,0.4,0.4,0.3,0.7l-4.2,11.1c-0.7,1.9,0.1,4,2.1,4.7
		c2,0.7,4-0.2,4.7-2.2L118.2,9c0.1-0.3,0.4-0.4,0.7-0.3l3.4,1.3c0.3,0.1,0.4,0.4,0.3,0.7L118.3,22c-1.6,4.2-6.4,6.3-10.7,4.7
		c-4.3-1.6-6.5-6.4-4.9-10.5L107,4.8z"/>
	<path class="st0" d="M130,14.7c0.2-0.2,0.5-0.4,0.8-0.2l2.9,1.8c0.2,0.2,0.3,0.5,0.2,0.8l-8.3,13.2l5.9,3.7
		c0.3,0.2,0.3,0.5,0.2,0.8l-1.7,2.7c-0.2,0.2-0.5,0.3-0.8,0.2l-9.3-5.9c-0.3-0.2-0.3-0.5-0.2-0.8L130,14.7z"/>
	<path class="st0" d="M145.2,25c0.2-0.2,0.6-0.2,0.8,0l9,8.2c0.2,0.2,0.2,0.6,0,0.8l-2.1,2.4c-0.2,0.2-0.6,0.2-0.8,0l-6-5.5
		l-2.4,2.7l4.9,4.5c0.2,0.2,0.2,0.6,0,0.8l-2.1,2.4c-0.2,0.2-0.6,0.2-0.8,0l-4.9-4.5l-2.7,2.9l6,5.5c0.2,0.2,0.2,0.6,0,0.8l-2.1,2.4
		c-0.2,0.2-0.6,0.2-0.8,0l-9-8.1c-0.2-0.2-0.2-0.6,0-0.8L145.2,25z"/>
</g>
<image style="display:none;overflow:visible;enable-background:new    ;" width="162" height="129" xlink:href="25F97D61FC9B434F.png"  transform="matrix(1 0 0 1 21.0092 -0.9624)">
</image>
<g>
	<path class="st0" d="M28.9,108.1l4.7-4.6c0.8-0.7,1.7-0.7,2.4,0c0.3,0.4,5.8,5,11.4,5c5,0,9.9-3.6,9.9-8.7c0-4.8-4.5-9.2-12.8-9.2
		h-5.2c-1,0-1.8-0.7-1.8-1.9v-5.9c0-1.2,0.7-1.9,1.8-1.9h5.2c7.6,0,11.5-3.8,11.5-8.6c0-5.1-4.3-8.5-9-8.5c-4.8,0-7.8,2.6-9.4,4.5
		c-0.7,0.7-1.7,0.8-2.5,0.1l-4.6-4.3c-0.7-0.7-0.6-1.8,0-2.4c0,0,7.1-8.2,17.5-8.2c10.8,0,19.8,6.6,19.8,17c0,7.2-5.4,12.6-9.6,14.5
		v0.3c4.4,1.9,11.2,6.9,11.2,15.2c0,10.5-8.5,18.1-21.4,18.1c-11.6,0-17.3-5.9-19.3-8.3C28.2,109.8,28.3,108.8,28.9,108.1z"/>
	<path class="st0" d="M80,107.9l4.7-4.6c0.7-0.6,1.5-0.7,2.2-0.1c0.4,0.4,5.8,5.2,12,5.2c6.3,0,10.8-5.1,10.8-11
		c0-5.8-3.9-10.4-11.2-10.4H84.1c-1.9,0-2.9-1.8-2.9-3.2V56.3c0-0.9,0.7-1.8,1.8-1.8h29.4c1,0,1.8,0.8,1.8,1.8v6.3
		c0,0.9-0.7,1.8-1.8,1.8H91.7v12.4h8c13.2,0,21.3,8.5,21.3,20.6c0,11.6-9.7,21.3-22.5,21.3c-9.9,0-16-4.9-18.3-7.7
		C79,109.6,78.9,109,80,107.9z"/>
</g>
</svg>
