<?xml version="1.0" encoding="utf-8"?>
<!-- Generator: Adobe Illustrator 23.0.3, SVG Export Plug-In . SVG Version: 6.00 Build 0)  -->
<svg version="1.1" id="Layer_1" xmlns="http://www.w3.org/2000/svg" xmlns:xlink="http://www.w3.org/1999/xlink" x="0px" y="0px"
	 viewBox="0 0 198.4 181.4" style="enable-background:new 0 0 198.4 181.4;" xml:space="preserve">
<style type="text/css">
	.st0{display:none;}
	.st1{display:inline;}
	.st2{display:inline;fill:none;stroke:#000000;stroke-width:4.8756;stroke-miterlimit:10;}
	.st3{display:inline;fill:none;stroke:#000000;stroke-width:4;stroke-linecap:round;stroke-miterlimit:10;}
</style>
<path class="st0" d="M100.3,109.4c-5.1,5.9-10.2,12.3-15.3,19c0.2,0.2,0.4,0.2,0.4,0.4c6.6,5.5,13.6,8.3,20.7,8.9
	c1.1,0,1.9,0.9,1.7,2.1c0,0.9-0.9,1.7-1.9,1.7c0,0,0,0-0.2,0c-7.8-0.6-15.3-3.8-22.7-9.7l-0.2-0.2c-8.2,10.8-15.9,22.4-22.4,33.5
	c-0.4,0.6-1,0.9-1.7,0.9c-0.4,0-0.6,0-1-0.2c-1-0.6-1.3-1.7-0.8-2.6c6.4-11.6,14.6-23.3,22.9-34.5c-6.6-7.6-21-28.4-3.8-53.6
	c8.9-13.1,25.4-23.5,48.9-31.5c17.4-5.9,32.4-8,32.6-8c0.6,0,0.9,0,1.3,0.4s0.6,0.8,0.8,1.3c0.2,1.3,4,33.7-7.6,63.7
	c-0.4,0.9-1.5,1.5-2.5,1.1c-0.9-0.4-1.5-1.5-1.1-2.5c9.7-25,8.1-52.5,7.6-59.9c-10.2,1.7-58.7,11-76.7,37.3
	c-15.7,22.9-3.4,41.5,2.8,48.5c5.1-6.4,10.2-12.7,15.2-18.6c-0.8,0-1.5-0.6-1.7-1.5c-0.2-0.8-3.4-16.7,0-26c0.4-0.9,1.5-1.5,2.5-1.1
	c0.9,0.4,1.5,1.5,1.1,2.5c-3,8.3,0,23.7,0,23.9c4.7-5.5,9.3-10.6,13.4-15.2c-0.4-2.1-2.3-12.9,0.2-19.3c0.4-0.9,1.5-1.5,2.5-1.1
	c0.9,0.4,1.5,1.5,1.1,2.5c-1.5,4.2-0.9,10.8-0.4,14.6c10-10.8,17.2-17.6,17.4-17.8c0.8-0.8,1.9-0.8,2.6,0s0.8,1.9,0,2.7
	c-0.2,0.2-7.4,7.2-17.6,18.2c2.8,0.6,11.6,1.7,16.7-0.2c0.9-0.4,2.1,0.2,2.5,1.1s-0.2,2.1-1.1,2.5c-2.5,0.9-5.5,1.1-8.5,1.1
	c-5.7,0-10.8-1.1-11.2-1.1s-0.8-0.4-0.9-0.6c-4,4.4-8.3,9.1-12.7,14.4c3.6,0.6,15.7,2.5,22.9-0.2c0.9-0.4,2.1,0.2,2.5,1.1
	s-0.2,2.1-1.1,2.5c-3.2,1.1-7.2,1.5-11.2,1.5c-7.4,0-14.4-1.3-14.8-1.5C100.9,109.8,100.5,109.6,100.3,109.4z M59.2,111.8
	c1,0,1.7-0.6,1.9-1.5c0.2-0.9-0.4-2.1-1.5-2.3c-2.7-0.6-5.3-1.5-8-2.8c-1-0.6-24.2-13.1-14.2-39.2c9.3-23.9,44.7-40.2,53.3-43.6
	c1.1,3.4,3.6,11.6,4.9,21.8c0.2,1,1.1,1.7,2.1,1.7c0.9-0.2,1.7-1.1,1.7-2.1c-1.9-14-5.7-24.1-5.7-24.4c-0.2-0.4-0.6-1-0.9-1.1
	c-0.4-0.2-0.9-0.2-1.5,0C89.3,19,45,36.2,34,64.8c-9.7,25,8.5,39.2,14.4,43c-2.5,4.6-9.5,18.4-13.1,30.3c-0.4,0.9,0.2,2.1,1.3,2.3
	c0.2,0,0.4,0,0.6,0c0.8,0,1.5-0.6,1.9-1.3c3.4-11.6,10.4-25.2,12.9-29.6c2.5,1.1,4.9,1.9,7.2,2.5C58.8,111.8,59,111.8,59.2,111.8z
	 M173.1,139.1c0,14.8-11.9,26.7-26.7,26.7s-26.7-11.9-26.7-26.7s12.1-26.7,26.7-26.7C160.9,112.4,173.1,124.3,173.1,139.1z
	 M169.3,139.1c0-12.7-10.2-22.9-22.9-22.9s-22.9,10.2-22.9,22.9s10.4,22.9,22.9,22.9S169.3,151.8,169.3,139.1z M131.2,126.6
	c-0.3-0.6,0.1-1.2,0.8-1.2h2.1c0.4,0,0.7,0.3,0.8,0.5l11.3,25.5h0.2l11.3-25.5c0.1-0.2,0.4-0.5,0.8-0.5h2.1c0.7,0,1.1,0.6,0.8,1.2
	l-14.1,31.3c-0.1,0.3-0.4,0.5-0.8,0.5h-0.5c-0.3,0-0.6-0.2-0.8-0.5L131.2,126.6z"/>
<g class="st0">
	<g class="st1">
		<path d="M99.2,115.9l-1.9-2.9c-9.2-13.6-14-29.5-14-45.9s4.8-32.3,14-45.9l1.9-2.9l1.9,2.9c9.2,13.6,14,29.5,14,45.9
			s-4.8,32.3-14,45.9L99.2,115.9z M99.2,26.9C91.8,39,88,52.8,88,67.1s3.9,28.1,11.2,40.3c7.4-12.1,11.2-25.9,11.2-40.3
			S106.6,39,99.2,26.9z"/>
		<path d="M63.1,141.6c-10.3,0-20.2-3-28.7-8.8l-2.9-1.9l2.9-1.9c8.5-5.7,18.4-8.8,28.7-8.8s20.2,3,28.7,8.8l2.9,1.9l-2.9,1.9
			C83.3,138.6,73.4,141.6,63.1,141.6z M40.1,130.9c7,3.9,14.8,6,23,6s16-2.1,23-6c-7-3.9-14.8-6-23-6
			C55,124.9,47.1,126.9,40.1,130.9z"/>
		<path d="M93.6,123.4l-3.4-0.7c-11.3-2.2-21.6-7.7-29.8-15.8c-8.2-8.2-13.7-18.5-15.8-29.8L44,73.7l3.4,0.7
			C58.7,76.6,69,82,77.1,90.2S90.8,108.7,93,120L93.6,123.4z M50,79.8c2.4,9,7.1,17.1,13.7,23.8s14.8,11.3,23.8,13.7
			c-2.4-9-7.1-17.1-13.7-23.8C67.2,86.9,59,82.2,50,79.8z"/>
		<path d="M104.8,123.4l0.7-3.4c2.2-11.3,7.7-21.6,15.8-29.8c8.2-8.2,18.5-13.7,29.8-15.8l3.4-0.7l-0.7,3.4
			c-2.2,11.3-7.7,21.6-15.9,29.8c-8.2,8.2-18.5,13.7-29.8,15.8L104.8,123.4z M148.4,79.8c-9,2.4-17.1,7.1-23.8,13.7
			c-6.6,6.6-11.3,14.8-13.7,23.8c9-2.4,17.1-7.1,23.8-13.7C141.3,96.9,146,88.8,148.4,79.8z"/>
		<path d="M135.4,141.6c-10.3,0-20.2-3-28.7-8.8l-2.9-1.9l2.9-1.9c8.5-5.7,18.4-8.8,28.7-8.8c10.3,0,20.2,3,28.8,8.8l2.9,1.9
			l-2.9,1.9C155.6,138.6,145.6,141.6,135.4,141.6z M112.4,130.9c7,3.9,14.8,6,23,6c8.1,0,16-2.1,23-6c-7-3.9-14.9-6-23-6
			C127.2,124.9,119.4,126.9,112.4,130.9z"/>
		<rect x="96.9" y="136.4" width="5" height="27"/>
	</g>
</g>
<g class="st0">
	<path class="st2" d="M140.6,133.8c0,0-1-22.1-1.3-25.4c2.9-2.6,7.1-5.1,7.4-12.2c0.4-9.3-5.5-16-10.9-17.1c0-5,0-5,0-5
		c1.1-3.9,4.4-6.5,4.2-18.6c-0.1-6.4-1.1-11.9-3.1-16.6c4.6-2.8,7.7-7.8,7.7-13.5c0-8.8-7.2-15.8-16.1-15.8c-6.7,0-10.5,4-11.9,9.7
		c-1.4-0.5-2.7-1-4.2-1.4c0,0-2.6-1.3-14.3-1.2c-10.8,0.1-17,2.3-17,2.3c-1.7,0.6-3.3,1.3-4.8,2c-1.2-6.2-4.2-11.3-10.8-11.3
		c-8.9,0-16.1,7.1-16.1,15.8c0,6.2,3.7,11.6,9,14.1c-1.4,4.4-2.2,9.6-2.2,16c0,7.5,1.9,14.5,5.2,20.5l-0.7,5.7
		c-5,1.4-8.8,7.2-8.8,14.2c0,5.3,2.2,10,5.6,12.5l2.8,1.9c-0.5,5.2-1.4,25-1.4,25c0,0.6-9.6,9.6-7.1,19.5
		c2.9,11.9,12.4,18.1,21.5,17.6c3.7-0.2,8.5-1.5,11-3.9c7.4,2.1,10.9,2.4,17.7,2.4c7.2,0,8.2-0.2,16.5-2.6c2.1,1.8,3,2.5,5.8,3.3
		c11.1,2.8,20.8-6,24.1-17.9C151.2,143.7,140.6,133.8,140.6,133.8z"/>
	<path class="st1" d="M82.3,49.6c-2.8,1.3-4.8,3.7-5.8,1.5c-1-2.2,0.4-5,3.1-6.3s5.8-0.5,6.8,1.7C87.4,48.6,85,48.3,82.3,49.6z"/>
	<path class="st1" d="M114.1,49.6c2.8,1.3,4.8,3.7,5.8,1.5s-0.4-5-3.1-6.3s-5.8-0.5-6.8,1.7C109,48.6,111.4,48.3,114.1,49.6z"/>
	<path class="st1" d="M106.4,57.7c0,2-3.4,3.6-7.7,3.6c-4.2,0-7.6-1.6-7.6-3.6c0-2,3.4-3.6,7.6-3.6C103,54.1,106.4,55.8,106.4,57.7z
		"/>
	<path class="st3" d="M70.9,25.4c0,0-1.8-8.4-8.8-8.2"/>
	<path class="st3" d="M122.8,23.2c0,0,3.3-7.9,10.1-6.6"/>
</g>
<g class="st0">
	<path class="st1" d="M151.6,53.3L151.6,53.3c-7.1-7.2-16.6-11.1-26.6-11.1l0,0c-8.5,0-16.6,2.8-23.2,8.1c0.8-10.3,6.6-13.7,7-13.9
		c1.3-0.7,1.8-2.3,1.1-3.5c-0.7-1.3-2.3-1.8-3.7-1.1c-0.2,0.2-2.2,1.2-4.3,3.8c-0.5-1.9-1.5-3.9-3-5.8c-3.7-4.8-9.6-7.4-17.7-8
		c-0.8,0-1.5,0.3-2,0.8c-0.5,0.5-0.8,1.3-0.8,2c0.5,8,3.2,13.9,7.8,17.7c3.7,3,7.8,3.8,10.7,3.9c-0.3,1.2-0.4,2.6-0.5,4
		c-6.6-5.3-14.7-8.1-23.2-8.1c-10,0-19.5,3.9-26.6,11.1c-6.9,7-10.8,16.5-10.8,26.5c0,13.5,5.8,26.5,15.8,35.5l45.8,41.1
		c0.5,0.4,1.1,0.7,1.8,0.7s1.2-0.3,1.8-0.7l45.8-40.9c10.2-9,15.8-22,15.8-35.5C162.6,69.8,158.6,60.4,151.6,53.3z M84.1,27.5
		c4.7,0.8,8.4,2.6,10.7,5.4c2.2,2.7,2.7,6,2.8,8c-2-0.2-5.3-0.7-7.9-2.8C86.8,35.9,84.9,32.2,84.1,27.5z M143.1,111.3l-44,39.4
		l-43.9-39.4c-9-7.9-14.2-19.4-14.2-31.5c0-8.7,3.4-16.6,9.5-22.8c6.1-6.1,14.2-9.5,22.7-9.5c8.7,0,16.6,3.4,22.7,9.5l1.3,1.3
		c1.1,1.1,2.7,1.1,3.8,0l1.3-1.3c6.1-6.1,14.2-9.5,22.7-9.5l0,0c8.6,0,16.6,3.4,22.7,9.5l0.2,0.2c6.1,6.1,9.5,14.2,9.5,22.7
		C157.2,91.8,152.1,103.3,143.1,111.3z"/>
	<path class="st1" d="M142.1,62.7c-4.6-4.6-10.7-7-17-7c-1.5,0-2.7,1.2-2.7,2.7c0,1.5,1.2,2.7,2.7,2.7c5,0,9.7,2,13.4,5.5
		c3.6,3.7,5.5,8.4,5.5,13.4c0,1.5,1.2,2.7,2.7,2.7s2.7-1.2,2.7-2.7C149.3,73.3,146.7,67.2,142.1,62.7z"/>
</g>
<path d="M72.3,162.1h88.9c5.9,0,8.9-3,8.9-8.9V64.3c0-5.9-3-8.9-8.9-8.9H72.3c-5.9,0-8.9,3-8.9,8.9v88.9
	C63.4,159.2,66.4,162.1,72.3,162.1z M90.1,144.3c-5,0-8.9-3.9-8.9-8.9s3.9-8.9,8.9-8.9c5,0,8.9,3.9,8.9,8.9S95.1,144.3,90.1,144.3z
	 M36.8,126.6h16V64.3c0-14.6,5.8-20.7,19.6-20.7h62.2V28.8c0-5.9-3-8.9-8.9-8.9H36.8c-5.9,0-8.9,3-8.9,8.9v88.9
	C27.9,123.6,30.8,126.6,36.8,126.6z M90.1,91c-5,0-8.9-3.9-8.9-8.9c0-5,3.9-8.9,8.9-8.9c5,0,8.9,3.9,8.9,8.9
	C99,87.1,95.1,91,90.1,91z M116.8,117.7c-5,0-8.9-3.9-8.9-8.9s3.9-8.9,8.9-8.9s8.9,3.9,8.9,8.9S121.8,117.7,116.8,117.7z
	 M143.4,144.3c-5,0-8.9-3.9-8.9-8.9s3.9-8.9,8.9-8.9s8.9,3.9,8.9,8.9S148.4,144.3,143.4,144.3z M143.4,91c-5,0-8.9-3.9-8.9-8.9
	c0-5,3.9-8.9,8.9-8.9s8.9,3.9,8.9,8.9C152.3,87.1,148.4,91,143.4,91z"/>
</svg>
