<?xml version="1.0" encoding="utf-8"?>
<!-- Generator: Adobe Illustrator 23.0.4, SVG Export Plug-In . SVG Version: 6.00 Build 0)  -->
<svg version="1.1" id="Layer_1" xmlns="http://www.w3.org/2000/svg" xmlns:xlink="http://www.w3.org/1999/xlink" x="0px" y="0px"
	 viewBox="0 0 64 70.8" style="enable-background:new 0 0 64 70.8;" xml:space="preserve">
<style type="text/css">
	.st0{display:none;}
	.st1{display:inline;}
</style>
<g id="purchase">
	<path d="M61,28.3h-9.1l8-15.2c0.7-1.2,0.7-2.7,0-3.9L59.8,9c-1.1-2-3.6-2.7-5.6-1.6c-0.7,0.4-1.2,0.9-1.6,1.6L42.4,28.3H21.6
		L11.4,9.1c-1.1-2-3.6-2.7-5.5-1.7C5.1,7.8,4.6,8.3,4.2,9L4.1,9.2c-0.7,1.2-0.7,2.7,0,3.9l8,15.2H3c-0.6,0-1,0.4-1,1v6
		c0,0.6,0.4,1,1,1h2.2l5.2,25c0.5,2.3,2.5,4,4.9,4h33.5c2.4,0,4.4-1.7,4.9-4l5.2-25H61c0.6,0,1-0.4,1-1v-6
		C62,28.7,61.6,28.3,61,28.3z M54.4,10c0.5-1,1.8-1.4,2.8-0.9c0.4,0.2,0.6,0.5,0.8,0.8l0.1,0.2c0.4,0.6,0.4,1.4,0,2L47,33.2
		c-0.6,1-1.8,1.4-2.8,0.8c-0.3-0.2-0.6-0.5-0.8-0.8L43.3,33c-0.4-0.6-0.4-1.4,0-2L54.4,10z M22.5,34c0.6-1.1,0.7-2.5,0.1-3.7h18.8
		c-0.6,1.2-0.5,2.6,0.1,3.7l0.1,0.2c0,0,0,0.1,0.1,0.1H22.3c0,0,0-0.1,0.1-0.1L22.5,34z M5.8,10.2L5.9,10c0.6-1,1.8-1.4,2.8-0.8
		C9.1,9.4,9.4,9.7,9.6,10l11.1,21c0.3,0.6,0.3,1.4,0,2l-0.1,0.2c-0.6,1-1.8,1.4-2.8,0.8c-0.3-0.2-0.6-0.5-0.8-0.8l-11.1-21
		C5.5,11.5,5.5,10.8,5.8,10.2z M4,30.3h9.2l2,3.8c0,0.1,0.1,0.1,0.1,0.2H4V30.3z M51.7,60.9c-0.3,1.4-1.5,2.4-2.9,2.4H15.3
		c-1.4,0-2.6-1-2.9-2.4L7.2,36.3h49.5L51.7,60.9z M60,34.3H48.7c0-0.1,0.1-0.1,0.1-0.2l2-3.8H60V34.3z"/>
	<path d="M17,59.3c1.7,0,3-1.3,3-3v-15c0-1.7-1.3-3-3-3s-3,1.3-3,3v15C14,58,15.3,59.3,17,59.3z M16,41.3c0-0.6,0.4-1,1-1s1,0.4,1,1
		v15c0,0.6-0.4,1-1,1s-1-0.4-1-1V41.3z"/>
	<path d="M27,59.3c1.7,0,3-1.3,3-3v-15c0-1.7-1.3-3-3-3s-3,1.3-3,3v15C24,58,25.3,59.3,27,59.3z M26,41.3c0-0.6,0.4-1,1-1s1,0.4,1,1
		v15c0,0.6-0.4,1-1,1s-1-0.4-1-1V41.3z"/>
	<path d="M37,59.3c1.7,0,3-1.3,3-3v-15c0-1.7-1.3-3-3-3s-3,1.3-3,3v15C34,58,35.3,59.3,37,59.3z M36,41.3c0-0.6,0.4-1,1-1s1,0.4,1,1
		v15c0,0.6-0.4,1-1,1s-1-0.4-1-1V41.3z"/>
	<path d="M47,59.3c1.7,0,3-1.3,3-3v-15c0-1.7-1.3-3-3-3s-3,1.3-3,3v15C44,58,45.3,59.3,47,59.3z M46,41.3c0-0.6,0.4-1,1-1s1,0.4,1,1
		v15c0,0.6-0.4,1-1,1s-1-0.4-1-1V41.3z"/>
	<path d="M39,5.3H25c-0.6,0-1,0.4-1,1v6h-3c-0.6,0-1,0.4-1,1c0,0.3,0.1,0.6,0.3,0.7l11,10c0.4,0.3,1,0.3,1.3,0l11-10
		c0.4-0.4,0.4-1,0.1-1.4c-0.2-0.2-0.5-0.3-0.7-0.3h-3v-6C40,5.7,39.6,5.3,39,5.3z M40.4,14.3L32,21.9l-8.4-7.6H25c0.6,0,1-0.4,1-1
		v-6h12v6c0,0.6,0.4,1,1,1H40.4z"/>
</g>
<path id="post" class="st0" d="M28.7,14.2c-13.3,1-23.2,12.6-22.2,25.9s12.6,23.2,25.9,22.2c3.4-0.3,6.8-1.3,9.8-2.9L56.9,65
	c0.2,0.1,0.3,0,0.4-0.2c0-0.1,0-0.2,0-0.2l-5.6-14.8c6.4-11.7,2.1-26.4-9.5-32.8C38,14.8,33.4,13.8,28.7,14.2z M54,61.8L42,57.2
	l-0.4,0.2c-10.6,6.1-24.1,2.4-30.2-8.1s-2.4-24.1,8.1-30.2s24.1-2.4,30.2,8.1c3.9,6.8,3.9,15.2,0,22l-0.2,0.4L54,61.8z M30.5,34.1
	c-2.3,0-4.1,1.9-4.1,4.1c0,2.3,1.9,4.1,4.1,4.1c2.3,0,4.1-1.9,4.1-4.1c0,0,0,0,0,0C34.7,36,32.8,34.1,30.5,34.1z M30.5,40.4
	c-1.2,0-2.1-0.9-2.1-2.1c0-1.2,0.9-2.1,2.1-2.1c1.2,0,2.1,0.9,2.1,2.1C32.6,39.4,31.7,40.4,30.5,40.4L30.5,40.4z M42.5,34.1
	c-2.3,0-4.1,1.9-4.1,4.1c0,2.3,1.9,4.1,4.1,4.1c2.3,0,4.1-1.9,4.1-4.1c0,0,0,0,0,0C46.6,36,44.8,34.1,42.5,34.1z M42.5,40.4
	c-1.2,0-2.1-0.9-2.1-2.1c0-1.2,0.9-2.1,2.1-2.1c1.2,0,2.1,0.9,2.1,2.1C44.6,39.4,43.6,40.4,42.5,40.4L42.5,40.4z M18.6,34.1
	c-2.3,0-4.1,1.9-4.1,4.1c0,2.3,1.9,4.1,4.1,4.1c2.3,0,4.1-1.9,4.1-4.1c0,0,0,0,0,0C22.7,36,20.9,34.1,18.6,34.1z M18.6,40.4
	c-1.2,0-2.1-0.9-2.1-2.1s0.9-2.1,2.1-2.1c1.2,0,2.1,0.9,2.1,2.1C20.7,39.4,19.7,40.4,18.6,40.4L18.6,40.4z"/>
<g id="Invite" class="st0">
	<path class="st1" d="M57,33.7c-0.1,0-0.2,0-0.3,0c-0.1,0-0.1,0-0.2,0h-8.2c-0.5,0-0.9,0.4-0.9,0.9s0.4,0.9,0.9,0.9h5L32.9,47.2
		c-0.6,0.3-1.2,0.3-1.8,0L10.7,35.5h4.5c0.5,0,0.9-0.4,0.9-0.9s-0.4-0.9-0.9-0.9H7c-0.1,0-0.1,0-0.2,0c-0.9,0.1-1.6,0.9-1.6,1.8
		v28.1c0,1,0.8,1.8,1.8,1.8H57c1,0,1.8-0.8,1.8-1.8V35.6C58.8,34.5,58,33.7,57,33.7C57,33.7,57,33.7,57,33.7z M32.2,49.9l22.7,13.8
		l-45.4,0L32.2,49.9z M33.8,48.7L57,35.5l0,0v27.2L33.8,48.7z M30.4,48.9L7,63.1V35.6l0,0l23.2,13.2C30.3,48.8,30.3,48.8,30.4,48.9z
		"/>
	<path class="st1" d="M23.8,24.8c-1.9,2.3-1.8,5.8,0.4,7.9l6.9,7c0.5,0.5,1.2,0.5,1.7,0c0,0,0,0,0,0l6.9-7c2.2-2.1,2.3-5.6,0.4-7.9
		c-2-2.3-5.5-2.6-7.8-0.6c-0.1,0.1-0.2,0.2-0.4,0.3c-2.1-2.2-5.7-2.2-7.9-0.1C24,24.5,23.9,24.6,23.8,24.8L23.8,24.8z M25.2,26
		c1.3-1.6,3.7-1.8,5.3-0.4c0.1,0.1,0.2,0.2,0.2,0.2c0.7,0.7,1.9,0.7,2.6,0c0,0,0,0,0,0c1.4-1.5,3.8-1.5,5.3-0.1
		c0.1,0.1,0.2,0.2,0.2,0.2c1.3,1.6,1.2,4-0.3,5.4L32,38l-6.5-6.6C24,29.9,23.9,27.6,25.2,26L25.2,26z"/>
	<path class="st1" d="M20.1,13.2l-0.4,2.2c-0.1,0.5,0.3,1,0.7,1c0.2,0,0.4,0,0.6-0.1l1.8-1l1.8,1c0.4,0.2,1,0.1,1.2-0.4
		c0.1-0.2,0.1-0.4,0.1-0.6l-0.4-2.2l1.5-1.5c0.3-0.4,0.3-0.9,0-1.3c-0.1-0.1-0.3-0.2-0.5-0.2l-2-0.3l-0.9-2
		c-0.2-0.5-0.8-0.6-1.2-0.4c-0.2,0.1-0.3,0.2-0.4,0.4l-0.9,2l-2,0.3c-0.5,0.1-0.8,0.5-0.8,1c0,0.2,0.1,0.4,0.2,0.5L20.1,13.2z
		 M21.9,11.6c0.3,0,0.6-0.2,0.7-0.5l0.3-0.6l0.3,0.6c0.1,0.3,0.4,0.5,0.7,0.5l0.8,0.1l-0.6,0.6c-0.2,0.2-0.3,0.5-0.2,0.8l0.1,0.8
		l-0.6-0.3c-0.3-0.2-0.6-0.2-0.9,0l-0.6,0.3l0.1-0.8c0-0.3,0-0.6-0.2-0.8l-0.6-0.6L21.9,11.6z"/>
	<path class="st1" d="M37.8,13.2l-0.4,2.2c-0.1,0.5,0.3,1,0.7,1c0.2,0,0.4,0,0.6-0.1l1.8-1l1.8,1c0.4,0.2,1,0.1,1.2-0.4
		c0.1-0.2,0.1-0.4,0.1-0.6l-0.4-2.2l1.5-1.5c0.3-0.4,0.3-0.9,0-1.3c-0.1-0.1-0.3-0.2-0.5-0.2l-2-0.3l-0.9-2
		c-0.2-0.5-0.8-0.6-1.2-0.4c-0.2,0.1-0.3,0.2-0.4,0.4l-0.9,2l-2,0.3c-0.5,0.1-0.8,0.5-0.8,1c0,0.2,0.1,0.4,0.2,0.5L37.8,13.2z
		 M39.6,11.6c0.3,0,0.6-0.2,0.7-0.5l0.3-0.6l0.3,0.6c0.1,0.3,0.4,0.5,0.7,0.5l0.8,0.1l-0.6,0.6c-0.2,0.2-0.3,0.5-0.2,0.8l0.1,0.8
		l-0.6-0.3c-0.3-0.2-0.6-0.2-0.9,0l-0.6,0.3l0.1-0.8c0-0.3,0-0.6-0.2-0.8l-0.6-0.6L39.6,11.6z"/>
	<path class="st1" d="M58.8,8c-0.7-0.4-1.5-0.6-2.2-0.6c-2.5,0-5.5,1.9-7.4,5.1c-2.2,3.6-2.3,7.7-0.4,9.8c-1.1,0.8-1.8,2-2.2,3.3
		c-0.2,0.8-0.3,1.6-0.3,2.5c0,0.8-0.1,1.6-0.3,2.4c-0.7,1.5-2.1,2.6-3.7,2.8c-0.5,0.1-0.8,0.5-0.8,1c0.1,0.4,0.4,0.8,0.9,0.8
		c0,0,0.1,0,0.1,0c2.3-0.3,4.2-1.8,5.1-3.9c0.3-1,0.5-2,0.5-3c0-0.7,0.1-1.4,0.2-2c0.3-1.1,1-2.1,2-2.6c0.5,0.2,1,0.3,1.6,0.3
		c2.5,0,5.5-1.9,7.4-5.1C61.8,14.5,61.6,9.7,58.8,8z M57.8,17.7c-1.7,2.9-4.2,4.2-5.8,4.2c-0.5,0-0.9-0.1-1.3-0.3
		c-1.9-1.1-1.8-4.9,0.1-8.2c1.7-2.9,4.2-4.2,5.8-4.2c0.5,0,0.9,0.1,1.3,0.3C59.7,10.7,59.7,14.5,57.8,17.7z"/>
	<path class="st1" d="M54.3,11.8c-1.7,0.8-2.3,2.6-2.3,2.8c-0.1,0.5,0.1,1,0.6,1.1c0.5,0.1,1-0.1,1.1-0.6c0,0,0,0,0,0
		c0,0,0.4-1.3,1.3-1.7c0.5-0.2,0.7-0.7,0.5-1.2C55.3,11.8,54.8,11.6,54.3,11.8C54.3,11.8,54.3,11.8,54.3,11.8z"/>
	<path class="st1" d="M12.1,23.7c0.5,0,1.1-0.1,1.6-0.3c1,0.5,1.8,1.5,2,2.6c0.1,0.7,0.2,1.4,0.2,2c0,1,0.1,2.1,0.5,3
		c0.9,2.1,2.8,3.6,5.1,3.9c0,0,0.1,0,0.1,0c0.5,0,0.9-0.4,0.9-0.9c0-0.4-0.3-0.8-0.8-0.9c-1.6-0.2-3-1.3-3.7-2.8
		c-0.2-0.8-0.4-1.6-0.3-2.4c0-0.8-0.1-1.7-0.3-2.5c-0.3-1.3-1.1-2.5-2.2-3.3c1.9-2.1,1.8-6.2-0.4-9.8C12.9,9.3,10,7.4,7.5,7.4
		C6.7,7.4,5.9,7.6,5.2,8c-2.8,1.7-3,6.5-0.5,10.6C6.6,21.8,9.5,23.7,12.1,23.7z M6.2,9.5C6.6,9.3,7,9.2,7.5,9.2
		c1.6,0,4.1,1.3,5.8,4.2c1.9,3.2,2,7,0.1,8.2c-0.4,0.2-0.8,0.3-1.3,0.3c-1.6,0-4.1-1.3-5.8-4.2C4.3,14.5,4.3,10.7,6.2,9.5z"/>
	<path class="st1" d="M8.9,13.4c0.8,0.3,1.2,1.3,1.3,1.7c0.1,0.5,0.6,0.8,1.1,0.6c0.5-0.1,0.8-0.6,0.6-1.1c-0.1-0.2-0.6-2.1-2.3-2.8
		c-0.5-0.2-1,0-1.2,0.5C8.3,12.7,8.5,13.2,8.9,13.4L8.9,13.4L8.9,13.4z"/>
	<path class="st1" d="M7.9,31.4c1.8,0,3.2-1.4,3.2-3.2s-1.4-3.2-3.2-3.2s-3.2,1.4-3.2,3.2C4.8,30,6.2,31.4,7.9,31.4z M7.9,26.9
		c0.8,0,1.4,0.6,1.4,1.4c0,0.8-0.6,1.4-1.4,1.4S6.6,29,6.6,28.3C6.6,27.5,7.2,26.9,7.9,26.9z"/>
	<path class="st1" d="M56.1,25.1c-1.8,0-3.2,1.4-3.2,3.2s1.4,3.2,3.2,3.2c1.8,0,3.2-1.4,3.2-3.2C59.2,26.5,57.8,25.1,56.1,25.1z
		 M56.1,29.6c-0.8,0-1.4-0.6-1.4-1.4c0-0.8,0.6-1.4,1.4-1.4s1.4,0.6,1.4,1.4C57.4,29,56.8,29.6,56.1,29.6z"/>
</g>
</svg>
